<svg width="369" height="61" fill="none" xmlns="http://www.w3.org/2000/svg"><g clip-path="url(#clip0)"><path d="M95.183 24.558H82.484V9.974h2.82v12.201h7.412v-12.2h2.808v12.2h2.473v4.79h-2.814v-2.407zm6.058-14.584h10.555v2.395h-7.734v3.658h6.684v2.25h-6.684v3.892h7.842v2.395h-10.663V9.974zm13.464 0h2.852v6.047h7.772V9.974h2.834v14.584h-2.834v-6.154h-7.772v6.154h-2.82l-.032-14.584zm20.559 2.376h-4.584V9.957h11.984v2.395h-4.592v12.207h-2.808V12.351zm16.443-2.376a5.95 5.95 0 012.757.629 4.717 4.717 0 012.587 4.28 5.009 5.009 0 01-.683 2.623 4.668 4.668 0 01-1.898 1.796 5.91 5.91 0 01-2.738.598h-3.712v4.658h-2.821V9.974h6.508zm1.233 7.184c.401-.228.729-.555.949-.946.232-.412.352-.873.348-1.34a2.37 2.37 0 00-.355-1.246 2.71 2.71 0 00-.955-.934 2.634 2.634 0 00-1.334-.353h-3.554v5.184h3.579a2.58 2.58 0 001.354-.353l-.032-.012zm18.915-7.184a5.954 5.954 0 012.758.629 4.765 4.765 0 011.897 1.754c.461.77.696 1.642.683 2.526a4.996 4.996 0 01-.677 2.623 4.671 4.671 0 01-1.897 1.796 5.916 5.916 0 01-2.738.598h-3.713v4.658h-2.801V9.974h6.488zm1.233 7.184c.4-.23.727-.556.949-.946.23-.413.348-.874.342-1.34a2.375 2.375 0 00-.348-1.246 2.79 2.79 0 00-.955-.934 2.64 2.64 0 00-1.335-.353h-3.554v5.184h3.58c.467.003.925-.12 1.321-.353v-.012zm9.607 6.694a7.943 7.943 0 01-3.03-2.778 7.188 7.188 0 01-1.113-3.829c0-1.348.385-2.67 1.113-3.828a7.976 7.976 0 013.03-2.772 8.98 8.98 0 014.164-1.018c1.457 0 2.89.35 4.164 1.018a7.929 7.929 0 013.029 2.772 7.128 7.128 0 011.123 3.828 7.129 7.129 0 01-1.123 3.829 7.933 7.933 0 01-3.029 2.778 8.968 8.968 0 01-4.161 1.018 8.968 8.968 0 01-4.161-1.018h-.006zm6.956-2.114c1.262-.696 2.18-1.838 2.555-3.174a4.986 4.986 0 00-.557-3.956 5.19 5.19 0 00-1.998-1.856 5.946 5.946 0 00-2.767-.68c-.968 0-1.92.234-2.767.68a5.176 5.176 0 00-1.992 1.856 4.992 4.992 0 00-.727 2.646 4.86 4.86 0 00.703 2.577 5.212 5.212 0 001.985 1.883 5.723 5.723 0 002.751.677 5.793 5.793 0 002.77-.677l.044.024zm15.956.432a3.04 3.04 0 001.264-.749c.32-.324.495-.754.487-1.197a1.79 1.79 0 00-.24-.965 1.92 1.92 0 00-.727-.712 5.572 5.572 0 00-2.814-.598h-2.195v-1.982h2.378a4.48 4.48 0 002.277-.503 1.68 1.68 0 00.594-.642c.136-.26.197-.548.177-.837a1.5 1.5 0 00-.221-.838 1.62 1.62 0 00-.658-.599 4.967 4.967 0 00-2.352-.473c-2.37 0-3.645.95-3.826 2.85h-2.815a5.306 5.306 0 011.139-3.041 5.641 5.641 0 012.447-1.718 9.073 9.073 0 013.162-.54 9.795 9.795 0 013.162.474c.822.261 1.55.736 2.1 1.37.501.627.762 1.395.74 2.18a2.962 2.962 0 01-.759 2.095 4.156 4.156 0 01-1.898 1.198 4.848 4.848 0 011.588.67c.484.31.889.72 1.182 1.198.302.503.457 1.073.449 1.652a3.477 3.477 0 01-.904 2.395c-.64.686-1.46 1.2-2.378 1.49-1 .34-2.055.51-3.118.503-1.139.01-2.272-.17-3.345-.532a5.471 5.471 0 01-2.622-1.835 5.01 5.01 0 01-1.058-2.919h2.807c.001.435.112.863.324 1.249.213.386.52.717.897.966a5.96 5.96 0 002.972.599 5.773 5.773 0 001.784-.21zm14.241-12.196a5.898 5.898 0 012.46.479c.68.296 1.252.775 1.644 1.377a3.69 3.69 0 01.582 2.09 2.939 2.939 0 01-.259 1.197 3.357 3.357 0 01-.708 1.041c-.277.28-.61.504-.98.66a4.214 4.214 0 011.438.755c.422.34.767.757 1.015 1.226.251.465.381.98.38 1.502a3.758 3.758 0 01-.642 2.259 4.08 4.08 0 01-1.888 1.507c-.76.319-1.584.48-2.416.473h-7.342V9.974h6.716zm.873 5.837a1.854 1.854 0 00.974-1.652c0-.337-.09-.668-.259-.964a1.85 1.85 0 00-.72-.692 1.979 1.979 0 00-.994-.236h-3.75v3.796h3.737c.355.004.705-.083 1.012-.252zm.696 6.167a2.08 2.08 0 00.822-.755c.199-.338.299-.72.291-1.107a1.867 1.867 0 00-.298-1.03 2.158 2.158 0 00-.815-.742 2.373 2.373 0 00-1.151-.276h-4.294v4.191h4.275c.408.001.811-.096 1.17-.281zm20.426 2.58h-2.82V14.38l-8.399 10.178h-2.397V9.974h2.808v10.208l8.392-10.208h2.429l-.013 14.584zm7.14-12.208h-4.585V9.957h11.984v2.395h-4.591v12.207h-2.808V12.351zm12.762-2.376v5.753h1.593l4.276-5.759h3.396l-5.414 7.035 5.572 7.55h-3.479l-4.351-5.952h-1.593v5.951h-2.821V9.974h2.821zm13.799 12.536a2.53 2.53 0 001.309-.317c.405-.264.723-.632.917-1.06l.481-.975-5.313-10.178h3.099l3.649 7.58 3.523-7.58h3.105l-5.901 11.824a6.044 6.044 0 01-1.947 2.395 4.412 4.412 0 01-2.404.688h-1.075v-2.394l.557.018zM85.305 36.328v5.742h1.6l4.268-5.76h3.403l-5.42 7.035 5.578 7.55h-3.478l-4.351-5.952h-1.6v5.951h-2.82V36.328h2.82zm18.143 0a5.834 5.834 0 012.758.635 4.686 4.686 0 011.897 1.754 4.69 4.69 0 01.689 2.52 5 5 0 01-.683 2.623 4.592 4.592 0 01-1.897 1.796 5.826 5.826 0 01-2.738.628h-3.713v4.652h-2.82V36.328h6.507zm1.265 7.184c.398-.232.723-.56.942-.952.234-.412.353-.873.348-1.34a2.338 2.338 0 00-.354-1.24 2.623 2.623 0 00-.955-.934 2.565 2.565 0 00-1.334-.353h-3.554v5.173h3.579a2.64 2.64 0 001.303-.336l.025-.018zm6.52-7.184h10.561v2.395h-7.759v3.658h6.684v2.251h-6.684v3.897h7.842v2.395h-10.644V36.328zm24.892 14.584l-1.227-2.82h-7.09l-1.226 2.82h-2.979l6.413-14.596h2.675l6.412 14.596h-2.978zm-7.355-5.047h5.166l-2.466-5.753-.069-.353h-.032l-.095.353-2.504 5.753zm13.995-7.154h-4.585v-2.395h11.984v2.395h-4.591v12.201h-2.808V38.711zm23.582 12.201h-2.821V40.735l-8.398 10.177h-2.409V36.328h2.782v10.178l8.399-10.178h2.422l.025 14.584zm10.618-14.584a5.88 5.88 0 012.46.485 3.789 3.789 0 011.651 1.371c.398.63.599 1.355.581 2.09a3.045 3.045 0 01-.259 1.197 3.35 3.35 0 01-.708 1.042 2.885 2.885 0 01-.98.658c.522.16 1.005.417 1.422.755.427.338.775.756 1.025 1.227.252.467.382.984.379 1.508a3.863 3.863 0 01-.689 2.33 4.137 4.137 0 01-1.815 1.43 6.171 6.171 0 01-2.422.473h-7.361V36.328h6.716zm.873 5.837c.297-.164.544-.4.714-.682.173-.297.262-.631.26-.97a1.88 1.88 0 00-.26-.964 1.898 1.898 0 00-.723-.685 2.037 2.037 0 00-.991-.243h-3.75v3.796h3.744c.353.003.701-.084 1.006-.252zm.695 6.167c.345-.172.63-.434.822-.755.201-.335.304-.715.298-1.101a1.853 1.853 0 00-.304-1.03 2.078 2.078 0 00-.816-.748 2.441 2.441 0 00-1.151-.276h-4.294v4.191h4.275c.41.005.813-.092 1.17-.281zm6.799-12.004h2.82v6.047h7.772v-6.047h2.834v14.584h-2.834v-6.154h-7.772v6.154h-2.82V36.328zm20.382 13.878a7.974 7.974 0 01-3.029-2.772 7.198 7.198 0 01-1.113-3.832c0-1.348.385-2.672 1.113-3.831a7.91 7.91 0 013.029-2.766 8.985 8.985 0 014.164-1.018c1.457 0 2.89.35 4.165 1.018a7.873 7.873 0 013.029 2.766 7.147 7.147 0 011.122 3.831c0 1.35-.388 2.675-1.122 3.832a8.036 8.036 0 01-3.029 2.772 8.974 8.974 0 01-4.161 1.018 8.975 8.975 0 01-4.162-1.018h-.006zm6.956-2.114a5.218 5.218 0 002.017-1.886c.481-.79.728-1.687.715-2.598a4.863 4.863 0 00-.713-2.606 5.232 5.232 0 00-2.019-1.896 5.942 5.942 0 00-2.766-.68c-.969 0-1.921.234-2.767.68a5.13 5.13 0 00-1.992 1.862 5.16 5.16 0 00-.727 2.634c0 .923.25 1.83.727 2.635a5.191 5.191 0 001.998 1.855 5.723 5.723 0 002.751.677 5.789 5.789 0 002.751-.677h.025zm6.704-13.686a1.024 1.024 0 01-.274-.348.966.966 0 010-.848c.064-.133.157-.252.274-.348.267-.211.607-.322.955-.312a1.45 1.45 0 01.955.312.999.999 0 01.274.347.952.952 0 01.093.425.926.926 0 01-.091.426.98.98 0 01-.276.346 1.422 1.422 0 01-.955.312 1.433 1.433 0 01-.955-.312zm1.663 1.922h2.764v14.584h-2.821l.057-14.584zm2.447-1.922a.98.98 0 01-.276-.346.925.925 0 01-.09-.426.954.954 0 01.095-.425c.065-.134.16-.252.278-.347.261-.213.598-.324.942-.312.35-.012.693.1.961.312a.99.99 0 01.282.345.95.95 0 01.098.427.924.924 0 01-.096.428.972.972 0 01-.284.344c-.267.216-.61.327-.961.312a1.41 1.41 0 01-.523-.063 1.356 1.356 0 01-.457-.249h.031zm10.119 1.922h10.555v2.395h-7.709v3.658h6.684v2.251h-6.684v3.897h7.835v2.395h-10.681V36.328zm16.284 0v5.742h1.594l4.275-5.76h3.396l-5.413 7.035 5.571 7.55h-3.478l-4.351-5.952h-1.594v5.951h-2.82V36.328h2.82zm13.863 13.878a8.03 8.03 0 01-3.023-2.772 7.19 7.19 0 01-1.113-3.832c0-1.348.384-2.672 1.113-3.831a7.942 7.942 0 013.023-2.766 8.992 8.992 0 014.167-1.018 9 9 0 014.168 1.018 7.924 7.924 0 013.029 2.766 7.18 7.18 0 011.116 3.831 7.18 7.18 0 01-1.116 3.832 8.042 8.042 0 01-3.029 2.772 8.986 8.986 0 01-4.165 1.018 8.98 8.98 0 01-4.164-1.018h-.006zm6.956-2.114a5.19 5.19 0 001.998-1.855 5.126 5.126 0 00.734-2.635c0-.923-.253-1.83-.734-2.634a5.194 5.194 0 00-1.998-1.862 5.827 5.827 0 00-2.77-.676 5.75 5.75 0 00-2.764.676 5.144 5.144 0 00-1.992 1.862 4.933 4.933 0 00-.727 2.64c-.013.91.234 1.807.713 2.596a5.229 5.229 0 002.013 1.889c.84.45 1.791.683 2.757.676a5.826 5.826 0 002.751-.676h.019zm8.341-11.764h2.821v6.047h7.772v-6.047h2.827v14.584h-2.827v-6.154h-7.772v6.154h-2.821V36.328zm20.376 13.878a8.047 8.047 0 01-3.023-2.748 7.164 7.164 0 01-1.119-3.832 7.16 7.16 0 011.119-3.831 7.95 7.95 0 013.023-2.766 8.998 8.998 0 014.168-1.018c1.457 0 2.891.35 4.167 1.018a7.963 7.963 0 013.029 2.766 7.172 7.172 0 011.116 3.831c0 1.35-.385 2.673-1.116 3.832a8.036 8.036 0 01-3.029 2.772 8.98 8.98 0 01-4.164 1.018 8.98 8.98 0 01-4.164-1.018l-.007-.024zm6.957-2.114a5.159 5.159 0 002.004-1.855 5.126 5.126 0 00.734-2.635c0-.923-.253-1.83-.734-2.634a5.172 5.172 0 00-2.004-1.862 5.949 5.949 0 00-2.767-.68c-.968 0-1.921.235-2.767.68a5.17 5.17 0 00-1.986 1.862 4.936 4.936 0 00-.733 2.64c-.01.91.239 1.807.719 2.595a5.257 5.257 0 002.013 1.89 5.941 5.941 0 002.76.676c.966 0 1.916-.233 2.761-.676zm8.335-11.764h2.46l5.312 6.801 5.35-6.8h2.454v14.583h-2.821V40.61l-4.61 5.987h-.759l-4.566-5.987v10.327h-2.82V36.328zm19.471 0h2.815v14.584h-2.821l.006-14.584zm9.531 0v5.742h1.6l4.268-5.76h3.403l-5.42 7.035 5.578 7.55h-3.497l-4.351-5.952h-1.6v5.951h-2.821V36.328h2.84zM369 50.912h-2.827V40.735l-8.392 10.177h-2.409V36.328h2.808v10.178l8.392-10.178H369v14.584z" fill="#2B2E30" fill-opacity=".66"/><g filter="url(#filter0_d)"><path d="M0 30.497C.01 22.412 3.407 14.66 9.446 8.943 15.486 3.226 23.673.01 32.214 0l27.598.042a11.205 11.205 0 014.162.697 10.751 10.751 0 013.55 2.172 10.097 10.097 0 012.38 3.306 9.637 9.637 0 01.837 3.922c0 1.347-.285 2.68-.838 3.921a10.097 10.097 0 01-2.38 3.307 10.752 10.752 0 01-3.55 2.172c-1.323.492-2.738.73-4.16.696l-27.599-.041c-2.885.003-5.652 1.09-7.692 3.02-2.04 1.933-3.188 4.551-3.191 7.283a9.621 9.621 0 01-.736 3.94 10.059 10.059 0 01-2.295 3.36 10.714 10.714 0 01-3.492 2.253 11.19 11.19 0 01-4.143.793c-1.423 0-2.831-.27-4.143-.793a10.714 10.714 0 01-3.492-2.253 10.059 10.059 0 01-2.294-3.36A9.622 9.622 0 010 30.497z" fill="#2B2E30" fill-opacity=".66" shape-rendering="crispEdges"/></g><g filter="url(#filter1_d)"><path d="M70.481 50.9c0-2.678-1.124-5.247-3.124-7.141-2.001-1.895-4.715-2.959-7.544-2.959H32.215c-2.886-.003-5.652-1.09-7.692-3.02-2.04-1.932-3.189-4.551-3.192-7.283-.02 2.62-1.116 5.13-3.056 7-1.939 1.87-4.57 2.953-7.337 3.02-2.767.068-5.453-.885-7.492-2.658-2.038-1.772-3.27-4.225-3.433-6.841.154 7.993 3.613 15.61 9.634 21.214 6.02 5.605 14.124 8.75 22.568 8.762h27.598c1.4 0 2.788-.26 4.082-.767a10.722 10.722 0 003.461-2.187 10.068 10.068 0 002.313-3.276 9.63 9.63 0 00.812-3.864z" fill="#2B2E30" fill-opacity=".66" shape-rendering="crispEdges"/></g></g><defs><filter id="filter0_d" x="-4.004" y="0" width="78.744" height="48.843" filterUnits="userSpaceOnUse" color-interpolation-filters="sRGB"><feFlood flood-opacity="0" result="BackgroundImageFix"/><feColorMatrix in="SourceAlpha" values="0 0 0 0 0 0 0 0 0 0 0 0 0 0 0 0 0 0 127 0" result="hardAlpha"/><feOffset dy="4"/><feGaussianBlur stdDeviation="2"/><feComposite in2="hardAlpha" operator="out"/><feColorMatrix values="0 0 0 0 0 0 0 0 0 0 0 0 0 0 0 0 0 0 0.25 0"/><feBlend in2="BackgroundImageFix" result="effect1_dropShadow"/><feBlend in="SourceGraphic" in2="effect1_dropShadow" result="shape"/></filter><filter id="filter1_d" x="-3.987" y="30.497" width="78.469" height="38.497" filterUnits="userSpaceOnUse" color-interpolation-filters="sRGB"><feFlood flood-opacity="0" result="BackgroundImageFix"/><feColorMatrix in="SourceAlpha" values="0 0 0 0 0 0 0 0 0 0 0 0 0 0 0 0 0 0 127 0" result="hardAlpha"/><feOffset dy="4"/><feGaussianBlur stdDeviation="2"/><feComposite in2="hardAlpha" operator="out"/><feColorMatrix values="0 0 0 0 0 0 0 0 0 0 0 0 0 0 0 0 0 0 0.25 0"/><feBlend in2="BackgroundImageFix" result="effect1_dropShadow"/><feBlend in="SourceGraphic" in2="effect1_dropShadow" result="shape"/></filter><clipPath id="clip0"><path fill="#fff" d="M0 0h369v61H0z"/></clipPath></defs></svg>