<svg width="30" height="30" fill="none" xmlns="http://www.w3.org/2000/svg"><path d="M28.146 28.989h-.843V2.529a.506.506 0 00-.505-.507H17.36a.506.506 0 00-.506.506V4.72h-1.011V2.53a.506.506 0 00-.506-.507h-2.19V.506a.506.506 0 10-1.012 0v1.516H9.944a.506.506 0 00-.506.506V4.72H7.921a.506.506 0 00-.505.506v4.213H3.202a.506.506 0 00-.505.506V28.99h-.843a.506.506 0 100 1.011h26.292a.506.506 0 100-1.011zM10.45 3.034h4.383v1.685H10.45V3.034zM8.764 28.989h-.337v-.843a.506.506 0 10-1.011 0v.843h-.337v-1.686h1.685v1.686zm3.37-12.978V28.99H9.776v-2.191a.506.506 0 00-.505-.506H6.573a.506.506 0 00-.506.506v2.19h-2.36V10.45h8.428v5.562zm.506-6.573H8.427V5.73h8.427v9.776h-3.708V13.82h1.517a.506.506 0 100-1.011h-1.517v-1.685h1.517a.506.506 0 100-1.012h-1.517v-.168a.506.506 0 00-.506-.506zm8.933 19.55h-8.427v-12.47h8.427V28.99zm4.72 0h-3.709v-13.65a.506.506 0 10-1.01 0v.168h-1.012v-.168a.506.506 0 10-1.011 0v.168h-1.686V3.034h8.427v25.955z" fill="#fff"/><path d="M15.337 27.978c.28 0 .506-.227.506-.506v-9.438a.506.506 0 10-1.011 0v9.438c0 .28.226.506.505.506zm2.023 0a.506.506 0 00.505-.506v-9.438a.506.506 0 10-1.011 0v9.438c0 .28.226.506.505.506zm2.022 0c.28 0 .506-.227.506-.506v-9.438a.506.506 0 10-1.012 0v9.438c0 .28.227.506.506.506zm.674-21.574c.28 0 .506-.226.506-.505v-.674a.506.506 0 10-1.012 0v.674c0 .28.227.505.506.505zm2.023 0a.505.505 0 00.505-.505v-.674a.506.506 0 10-1.01 0v.674c0 .28.225.505.505.505zm2.022 0c.28 0 .506-.226.506-.505v-.674a.506.506 0 10-1.011 0v.674c0 .28.226.505.505.505zm-4.045 3.371c.28 0 .506-.226.506-.505v-.674a.506.506 0 10-1.012 0v.674c0 .28.227.505.506.505zm2.023 0a.505.505 0 00.505-.505v-.674a.506.506 0 10-1.01 0v.674c0 .28.225.505.505.505zm2.022 0c.28 0 .506-.226.506-.505v-.674a.506.506 0 10-1.011 0v.674c0 .28.226.505.505.505zm-4.045 3.371c.28 0 .506-.226.506-.506v-.674a.506.506 0 10-1.012 0v.675c0 .279.227.505.506.505zm2.023 0a.505.505 0 00.505-.506v-.674a.506.506 0 10-1.01 0v.675c0 .279.225.505.505.505zm2.022 0c.28 0 .506-.226.506-.506v-.674a.506.506 0 10-1.011 0v.675c0 .279.226.505.505.505zM5.899 14.495c.28 0 .506-.227.506-.506v-.674a.506.506 0 10-1.012 0v.674c0 .28.227.505.506.505zm2.022 0c.28 0 .506-.227.506-.506v-.674a.506.506 0 10-1.011 0v.674c0 .28.226.505.505.505zm2.023 0a.506.506 0 00.505-.506v-.674a.506.506 0 10-1.01 0v.674c0 .28.225.505.505.505zm-4.045 3.37c.28 0 .506-.226.506-.505v-.675a.506.506 0 10-1.012 0v.675c0 .279.227.505.506.505zm2.022 0c.28 0 .506-.226.506-.505v-.675a.506.506 0 10-1.011 0v.675c0 .279.226.505.505.505zm2.023 0a.505.505 0 00.505-.505v-.675a.506.506 0 10-1.01 0v.675c0 .279.225.505.505.505zm-4.045 3.371c.28 0 .506-.227.506-.506v-.674a.506.506 0 10-1.012 0v.674c0 .28.227.506.506.506zm2.022 0c.28 0 .506-.227.506-.506v-.674a.506.506 0 10-1.011 0v.674c0 .28.226.506.505.506zm2.023 0a.506.506 0 00.505-.506v-.674a.506.506 0 10-1.01 0v.674c0 .28.225.506.505.506zm-4.045 3.371c.28 0 .506-.226.506-.506v-.674a.506.506 0 10-1.012 0v.674c0 .28.227.506.506.506zm2.022 0c.28 0 .506-.226.506-.506v-.674a.506.506 0 10-1.011 0v.674c0 .28.226.506.505.506zm2.023 0a.505.505 0 00.505-.506v-.674a.506.506 0 10-1.01 0v.674c0 .28.225.506.505.506zm14.157-8.09c.28 0 .506-.226.506-.506v-.674a.506.506 0 10-1.011 0v.674c0 .28.226.506.505.506zm0 3.37c.28 0 .506-.226.506-.505v-.674a.506.506 0 10-1.011 0v.674c0 .28.226.505.505.505zm0 3.372c.28 0 .506-.227.506-.506v-.674a.506.506 0 10-1.011 0v.674c0 .28.226.506.505.506zm0 3.371c.28 0 .506-.227.506-.506v-.674a.506.506 0 10-1.011 0v.674c0 .279.226.505.505.505zM15.169 7.921a.506.506 0 00-.506-.505h-4.045a.506.506 0 100 1.011h4.045c.28 0 .506-.226.506-.506z" fill="#fff"/></svg>