<svg width="30" height="30" fill="none" xmlns="http://www.w3.org/2000/svg"><path d="M27.5 4h-2.939a.495.495 0 00-.137-.303l-2.121-2.122a.515.515 0 00-.707 0l-.9.903A7.45 7.45 0 0019 1.774V.5a.5.5 0 00-.5-.5h-3a.5.5 0 00-.5.5v1.274a7.45 7.45 0 00-1.694.704l-.9-.903a.515.515 0 00-.707 0L9.576 3.697A.494.494 0 009.438 4H2.5A2.503 2.503 0 000 6.5v17A2.503 2.503 0 002.5 26h9.86l-.845 3.379A.5.5 0 0012 30h6a.5.5 0 00.485-.621L17.64 26h9.86a2.503 2.503 0 002.5-2.5v-17A2.503 2.503 0 0027.5 4zm-16.038.876l-.826-.826 1.414-1.414.825.826a.5.5 0 00.625.067 6.45 6.45 0 012.107-.875.5.5 0 00.393-.489V1h2v1.165a.5.5 0 00.393.489 6.45 6.45 0 012.107.876.5.5 0 00.624-.068l.826-.827 1.415 1.416-.826.825a.5.5 0 00-.069.624c.416.645.712 1.358.877 2.107a.5.5 0 00.488.393H25v2h-1.165a.5.5 0 00-.489.393 6.433 6.433 0 01-.875 2.107.5.5 0 00.067.623l.826.827-1.414 1.415-.825-.827a.5.5 0 00-.625-.068 6.449 6.449 0 01-2.107.877.5.5 0 00-.393.488V17h-2v-1.165a.5.5 0 00-.393-.489 6.407 6.407 0 01-1.453-.512l.176-.1a.5.5 0 00.183-.684l-1.5-2.6a.5.5 0 00-.683-.182l-.842.486A4.485 4.485 0 0011 11.47v-.97a.5.5 0 00-.5-.5H9V8h1.165a.5.5 0 00.489-.393c.164-.749.46-1.463.876-2.107a.5.5 0 00-.068-.624zm1 10.14c.05.32.05.648 0 .97a.5.5 0 00.245.5l.69.4-1 1.73-.689-.396a.5.5 0 00-.558.039 3.52 3.52 0 01-.838.485.5.5 0 00-.312.463V20H8v-.794a.5.5 0 00-.312-.463 3.52 3.52 0 01-.838-.485.5.5 0 00-.558-.04l-.689.398-1-1.732.69-.4a.5.5 0 00.245-.5 3.113 3.113 0 010-.97.5.5 0 00-.245-.5l-.69-.4 1-1.73.689.396a.5.5 0 00.558-.038c.255-.2.537-.364.838-.486A.5.5 0 008 11.793V11h2v.793a.5.5 0 00.312.464c.3.122.583.286.838.486a.5.5 0 00.558.038l.689-.397 1 1.732-.69.4a.5.5 0 00-.245.5zM12.64 29l.75-3h3.22l.75 3h-4.72zM29 23.5a1.5 1.5 0 01-1.5 1.5h-25A1.5 1.5 0 011 23.5V23h28v.5zm0-1.5H1V6.5A1.5 1.5 0 012.5 5h7.672l.306.306A7.436 7.436 0 009.774 7H8.5a.5.5 0 00-.5.5V10h-.5a.5.5 0 00-.5.5v.971a4.482 4.482 0 00-.488.283l-.842-.486a.5.5 0 00-.683.183l-1.5 2.6a.5.5 0 00.183.683l.84.486a3.987 3.987 0 000 .564l-.84.486a.5.5 0 00-.183.68l1.5 2.6a.5.5 0 00.683.183l.842-.486c.157.105.32.199.488.283v.97a.5.5 0 00.5.5h3a.5.5 0 00.5-.5v-.971a4.49 4.49 0 00.488-.283l.842.486a.5.5 0 00.683-.183l1.5-2.6a.5.5 0 00-.183-.683l-.84-.485c.003-.056.003-.107.005-.16.478.256.983.46 1.505.605V17.5a.5.5 0 00.5.5h3a.5.5 0 00.5-.5v-1.274a7.45 7.45 0 001.694-.704l.9.903a.514.514 0 00.706 0l2.122-2.122a.5.5 0 000-.707l-.9-.9A7.44 7.44 0 0024.226 11H25.5a.5.5 0 00.5-.5v-3a.5.5 0 00-.5-.5h-1.274a7.438 7.438 0 00-.704-1.694L23.828 5H27.5A1.5 1.5 0 0129 6.5V22z" fill="#fff"/><path d="M17 5a4 4 0 100 8 4 4 0 000-8zm0 7a3 3 0 110-6 3 3 0 010 6zm-8 1a2.5 2.5 0 100 5 2.5 2.5 0 000-5zm0 4a1.5 1.5 0 110-3 1.5 1.5 0 010 3z" fill="#fff"/></svg>