<svg width="30" height="30" fill="none" xmlns="http://www.w3.org/2000/svg"><g clip-path="url(#clip0)"><path d="M29.955 9.705A16.632 16.632 0 0022.568.74a.805.805 0 00-.622-.08.805.805 0 00-.493.388L20.7 2.406a14.28 14.28 0 00-6.448-1.54A14.158 14.158 0 004.174 5.04 14.158 14.158 0 000 15.117c0 3.807 1.482 7.386 4.174 10.078a14.158 14.158 0 0010.078 4.174c3.21 0 6.24-1.042 8.765-3.014a.436.436 0 10-.537-.688 13.372 13.372 0 01-3.152 1.837l-1.492-4.093a9.095 9.095 0 004.355-3.981l3.9 1.929a13.423 13.423 0 01-2.268 3.104.436.436 0 10.625.61 14.173 14.173 0 004.055-9.956c0-1.33-.184-2.645-.546-3.915l1.473-.46a.805.805 0 00.482-.408c.1-.197.115-.42.043-.63zm-9.678-6.536l-2.11 3.804a9.061 9.061 0 00-7.482-.16l-1.867-3.93a13.345 13.345 0 015.434-1.145c2.094 0 4.167.494 6.025 1.431zm2.138 11.948a8.117 8.117 0 01-.628 3.14l-2.577-1.275a5.272 5.272 0 00.191-3.11l2.74-.855c.181.683.274 1.388.274 2.1zm-8.163 5.298a5.29 5.29 0 001.486-.212l.983 2.696a8.133 8.133 0 01-2.47.382 8.124 8.124 0 01-2.78-.488l1.151-2.634a5.292 5.292 0 001.63.256zm0-.872a4.404 4.404 0 01-2.449-.74.436.436 0 00-.483.727c.16.107.327.205.497.293l-1.15 2.628a8.218 8.218 0 01-3.725-3.7l2.651-1.11c.084.155.176.306.276.454a.436.436 0 10.722-.491 4.4 4.4 0 01-.765-2.487 4.43 4.43 0 014.425-4.425 4.43 4.43 0 014.426 4.425 4.43 4.43 0 01-4.425 4.426zm-8.164-4.425c0-.829.124-1.642.364-2.418l2.687 1.027a5.286 5.286 0 00.102 3.115L6.595 17.95a8.127 8.127 0 01-.507-2.832zM14.25 9.82c-.69 0-1.351.133-1.957.375L11.06 7.6a8.187 8.187 0 016.682.136l-1.395 2.515a5.267 5.267 0 00-2.096-.432zm4.876 3.224a5.332 5.332 0 00-2.01-2.38l2.11-3.805a9.6 9.6 0 014.058 4.887l-4.159 1.298zM4.79 5.657a13.42 13.42 0 013.242-2.392L9.9 7.195a9.06 9.06 0 00-1.848 1.348.436.436 0 10.599.634 8.185 8.185 0 011.625-1.192l1.236 2.6a5.333 5.333 0 00-2.076 2.322l-2.683-1.025c.203-.469.45-.92.74-1.347a.436.436 0 00-.72-.49 9.02 9.02 0 00-.835 1.525l-4.063-1.554A13.356 13.356 0 014.79 5.657zm-3.22 5.177l4.065 1.554a9.037 9.037 0 00.154 5.9l-4.014 1.681a13.372 13.372 0 01-.903-4.852c0-1.479.239-2.921.697-4.283zm.548 9.937l4.017-1.682a9.096 9.096 0 004.181 4.162L8.573 27.24a13.387 13.387 0 01-3.782-2.661A13.386 13.386 0 012.12 20.77zm16.391 7.037a13.369 13.369 0 01-4.259.688 13.36 13.36 0 01-4.876-.913l1.745-3.989c.976.362 2.031.56 3.132.56.965 0 1.895-.153 2.768-.434l1.49 4.088zm-.973-5.218l-.985-2.7a5.333 5.333 0 002.284-2.12l2.572 1.273a8.217 8.217 0 01-3.871 3.547zm10.094-7.473c0 1.91-.4 3.76-1.16 5.457l-3.9-1.93a9.04 9.04 0 00.404-5.888l4.149-1.293c.336 1.185.507 2.412.507 3.655zm-3.512-3.631a10.468 10.468 0 00-4.468-5.39l2.534-4.568a15.76 15.76 0 016.924 8.4l-4.99 1.558z" fill="#fff"/></g><defs><clipPath id="clip0"><path fill="#fff" d="M0 0h30v30H0z"/></clipPath></defs></svg>