<svg width="30" height="30" fill="none" xmlns="http://www.w3.org/2000/svg"><path d="M29.992 16.57c0-.187-.1-.358-.262-.45h-.002a.59.59 0 00-.095-.051l-6.844-3.06V3.788l-.001-.009v-.005l-.001-.011v-.008l-.001-.004a.583.583 0 00-.13-.315c0-.002-.002-.004-.003-.005a.189.189 0 00-.005-.006l-.003-.003a.252.252 0 00-.008-.01l-.002-.001a.983.983 0 00-.007-.008l-.002-.002-.009-.009a.523.523 0 00-.01-.01l-.01-.009-.001-.002-.009-.007-.001-.001-.01-.009-.003-.002-.006-.005-.005-.004c-.002 0-.003-.002-.005-.004a.584.584 0 00-.128-.073L15.24.05a.586.586 0 00-.478 0L7.57 3.264a.586.586 0 00-.128.074l-.005.004a.288.288 0 00-.01.01l-.004.001-.01.009-.01.008-.001.002-.01.009a.583.583 0 00-.019.019l-.001.002a.475.475 0 00-.008.008l-.001.001a1.235 1.235 0 00-.009.01l-.003.003-.004.005a1.896 1.896 0 01-.004.006l-.003.003a.583.583 0 00-.127.312v.012a.357.357 0 00-.002.016v9.232L.366 16.069a.583.583 0 00-.358.537v9.587c0 .232.136.441.347.535l7.204 3.22.003.001a.57.57 0 00.467.001l.007-.003L15 26.835l6.964 3.112.023.01c.147.055.31.052.455-.01l7.203-3.219a.586.586 0 00.347-.535V16.57zm-7.79 2.616l-5.766-2.577 5.767-2.578 5.767 2.578-5.767 2.577zM15 9.349a.586.586 0 00.586-.586v-1.36l6.03-2.694v8.3l-6.03 2.696v-1.644a.586.586 0 10-1.172 0v1.644L8.383 13.01V4.709l6.03 2.695v1.36c0 .323.263.585.587.585zm0-8.121l5.767 2.577L15 6.382 9.233 3.805 15 1.228zM7.797 14.03l5.767 2.578-5.767 2.577-5.767-2.577 5.767-2.578zM1.18 17.512l6.047 2.703a.586.586 0 00-.016.136v8.158L1.18 25.814v-8.302zm7.187 2.703l6.047-2.703v8.302l-6.031 2.695v-8.158a.588.588 0 00-.016-.136zm7.219-2.703l6.047 2.703a.585.585 0 00-.016.136v8.158l-6.031-2.695v-8.302zm7.203 10.997V20.35a.59.59 0 00-.016-.136l6.047-2.703v8.302l-6.031 2.695z" fill="#fff"/><path d="M15 11.987a.591.591 0 01-.555-.398.592.592 0 01.168-.628.592.592 0 01.696-.057.59.59 0 01.263.621.591.591 0 01-.572.462z" fill="#fff"/></svg>