<svg width="30" height="30" fill="none" xmlns="http://www.w3.org/2000/svg"><path d="M26.468 13.902c-1.02-.51-2.935-.516-3.016-.516a.44.44 0 000 .879c.494 0 1.928.076 2.623.423a.438.438 0 00.59-.196.44.44 0 00-.197-.59z" fill="#fff"/><path d="M28.659 20.159l-1.815-.519a.184.184 0 01-.133-.176v-.606c.148-.102.288-.217.42-.345.638-.619.99-1.45.99-2.338v-.836l.175-.351c.193-.386.294-.817.294-1.247v-2.265a.44.44 0 00-.439-.44h-4.229a2.792 2.792 0 00-2.789 2.79v.025c0 .359.085.717.245 1.037l.225.45v.718c0 1.138.56 2.159 1.41 2.773v.635c0 .098 0 .138-.363.242l-.886.253-2.561-.932a.439.439 0 00-.12-.336l-.819-.86v-1.444a5.158 5.158 0 001.88-3.971v-1.153a5.08 5.08 0 00.47-2.137V4.428a.44.44 0 00-.44-.44h-6.578a4.203 4.203 0 00-4.198 4.199v.94c0 .74.158 1.457.47 2.136v.992a5.37 5.37 0 001.879 4.098v1.478l-.819.86a.439.439 0 00-.12.336l-2.703.984a2.302 2.302 0 00-.544.284l-.424-.212C8.4 19.533 8.8 18.759 8.82 18.72a.44.44 0 000-.393c-.317-.634-.355-1.795-.386-2.729-.01-.31-.02-.604-.038-.865-.15-2.108-1.753-3.697-3.728-3.697-1.975 0-3.577 1.589-3.727 3.697a23.78 23.78 0 00-.039.866c-.03.933-.069 2.094-.386 2.728a.44.44 0 000 .393c.02.038.419.81 1.685 1.36l-1.179.59A1.84 1.84 0 000 22.327v3.246a.44.44 0 00.879 0v-3.246c0-.37.205-.703.536-.868l1.469-.734.51.485a1.844 1.844 0 002.548 0l.51-.485.48.239c-.226.36-.354.784-.354 1.227v3.382a.44.44 0 00.88 0V22.19c0-.603.38-1.147.947-1.353l2.85-1.037 1.187 1.78a.906.906 0 001.4.139l.724-.724v4.577a.44.44 0 10.879 0v-4.577l.724.724a.906.906 0 00.732.262.906.906 0 00.668-.4l1.186-1.78 2.851 1.036c.567.206.948.75.948 1.353v3.382a.44.44 0 00.879 0V22.19c0-.61-.243-1.184-.65-1.608l.108-.03c.11-.032.26-.075.41-.148l1.121 1.122v4.046a.44.44 0 00.88 0v-4.046l1.114-1.115c.059.03.12.056.186.075l1.815.518a.974.974 0 01.704.933v3.635a.44.44 0 00.879 0v-3.635c0-.821-.552-1.553-1.341-1.778zm-25.84-.776c-.822-.296-1.234-.69-1.41-.906a4.81 4.81 0 00.25-1.052 3.277 3.277 0 001.16 1.43v.528zm2.518 1.189a.97.97 0 01-1.337 0l-.409-.389a.909.909 0 00.107-.429v-.468a3.248 3.248 0 001.94 0v.468c0 .154.038.3.107.43l-.408.388zm-.668-2.017a2.382 2.382 0 01-2.38-2.38.44.44 0 00-.512-.433l.004-.113c.01-.303.02-.588.037-.833.056-.79.371-1.517.888-2.049a2.716 2.716 0 011.962-.832 2.72 2.72 0 011.963.832c.517.532.832 1.26.888 2.05.018.244.027.53.037.832l.003.078c-.478-.737-1.217-1.28-2.171-1.586a5.518 5.518 0 00-1.671-.265.44.44 0 00-.305.134l-.793.822a.44.44 0 00.633.61l.66-.684c.568.028 2.396.24 3.107 1.806a2.374 2.374 0 01-2.35 2.01zm1.848.83v-.525a3.25 3.25 0 001.16-1.433c.053.379.131.737.25 1.05-.174.214-.588.611-1.41.907zm4.23-7.13v-1.09a.44.44 0 00-.044-.192 4.215 4.215 0 01-.427-1.846v-.94c0-1.83 1.49-3.32 3.32-3.32h6.139v4.26c0 .64-.144 1.26-.426 1.846a.44.44 0 00-.044.191v1.252a4.22 4.22 0 01-1.347 3.108 4.358 4.358 0 01-.338.286l-.007.005a4.226 4.226 0 01-2.852.85c-2.229-.143-3.975-2.081-3.975-4.41zm2.474 8.842c-.003.003-.01.01-.025.009-.014-.002-.02-.01-.022-.014l-1.367-2.05.44-.462 2.073 1.418-1.1 1.1zm1.785-1.696l-2.38-1.626v-.82a4.946 4.946 0 002.384.599c.84 0 1.65-.2 2.375-.582v.803l-2.38 1.626zm1.831 1.692a.028.028 0 01-.022.013c-.014.002-.021-.006-.024-.009l-1.1-1.1 2.073-1.417.44.463-1.367 2.05zm8.025-.371l-.997-.997c.017-.08.027-.166.027-.261v-.186a3.077 3.077 0 00.971.155c.334 0 .66-.05.969-.146v.177c0 .088.011.173.032.256l-1.002 1.002zm1.657-2.84a2.362 2.362 0 01-1.73.671c-1.272-.038-2.307-1.158-2.307-2.497v-.821a.44.44 0 00-.046-.196l-.272-.543a1.448 1.448 0 01-.152-.645v-.026c0-1.053.857-1.91 1.91-1.91h3.79v1.826c0 .295-.07.59-.202.854l-.222.444a.44.44 0 00-.046.196v.94a2.36 2.36 0 01-.723 1.708z" fill="#fff"/><path d="M27.68 22.313a.44.44 0 00-.439.44v2.819a.44.44 0 10.88 0v-2.82a.44.44 0 00-.44-.439zm-25.361.581a.44.44 0 00-.44.44v2.238a.44.44 0 00.88 0v-2.238a.44.44 0 00-.44-.44zM18.605 9.286c-1.662-1.662-5.14-1.345-6.557-1.131a.902.902 0 00-.771.899v1.012a.44.44 0 00.879 0V9.054c0-.015.01-.028.023-.03.566-.085 1.69-.217 2.855-.14 1.37.092 2.363.436 2.95 1.023a.44.44 0 10.621-.621zM9.837 23.253a.44.44 0 00-.44.44v1.879a.44.44 0 00.88 0v-1.88a.44.44 0 00-.44-.439zm10.337 0a.44.44 0 00-.44.44v1.879a.44.44 0 00.88 0v-1.88a.44.44 0 00-.44-.439z" fill="#fff"/></svg>