<svg width="30" height="30" fill="none" xmlns="http://www.w3.org/2000/svg"><path d="M24.183 19.815v-3.123l-1.318.513-.004-.009-.032-.057a3.393 3.393 0 00-2.241-1.5l-3.171-.577v-.25a4.841 4.841 0 002.325-3.253 1.936 1.936 0 001.54-1.893V4.892a3.03 3.03 0 00-2.164-2.908l-.242-.241A5.912 5.912 0 0014.668 0a5.957 5.957 0 00-5.95 5.95v3.716c0 .932.662 1.711 1.54 1.893a4.842 4.842 0 002.326 3.253v.25l-3.171.576a3.394 3.394 0 00-2.24 1.5l-.03.07-1.325-.516v3.123c-.8 0-1.45.65-1.45 1.45v1.933c0 .8.65 1.45 1.45 1.45v1.78L15 30l9.183-3.572v-1.78c.8 0 1.45-.65 1.45-1.45v-1.933c0-.8-.65-1.45-1.45-1.45zm-5.86-3.606l2.092.38a2.421 2.421 0 011.526.975l-4.676 1.818 1.057-3.173zm-4.732-.954a4.813 4.813 0 002.818 0L15 16.31l-1.409-1.056zm.674 1.713l-.987.985-.64-1.919.308-.055 1.319.989zm2.79-.989l.307.056-.64 1.919-.986-.986 1.318-.989zm2.778-5.48V8.833a.964.964 0 01.483.832.964.964 0 01-.483.832zm-9.666 0a.963.963 0 01-.483-.833c0-.356.196-.665.483-.832v1.664zm0-3.25v.552a1.917 1.917 0 00-.483.2v-2.05A4.99 4.99 0 0114.668.967c1.331 0 2.583.518 3.525 1.46l.426.426.13.032a2.066 2.066 0 011.567 2.007v3.11a1.901 1.901 0 00-.483-.2v-.553h-1.532a4.204 4.204 0 01-3.347-1.672l-.385-.514-.96.961A4.158 4.158 0 0110.65 7.25h-.483zm.967 3.384v-2.44a5.116 5.116 0 003.159-1.485l.188-.188a5.177 5.177 0 003.82 1.696h.566v2.417A3.87 3.87 0 0115 14.498a3.87 3.87 0 01-3.866-3.867zM9.585 16.59l2.093-.38 1.057 3.172-4.676-1.819a2.42 2.42 0 011.526-.973zm-4.25 6.608v-1.933c0-.267.216-.483.483-.483.799 0 1.45.65 1.45 1.45 0 .799-.651 1.45-1.45 1.45a.484.484 0 01-.484-.484zm9.182 5.576l-7.733-3.006v-1.325a2.418 2.418 0 001.45-2.212c0-.988-.598-1.837-1.45-2.211v-1.915l7.733 3.007v7.662zm-1.435-9.257L15 17.6l1.918 1.918-1.918.746-1.918-.746zm10.134 6.25l-7.733 3.007v-7.662l7.733-3.007v1.915a2.418 2.418 0 00-1.45 2.212c0 .988.598 1.837 1.45 2.211v1.324zm1.45-2.569a.484.484 0 01-.483.483 1.451 1.451 0 010-2.9c.266 0 .483.217.483.484v1.933z" fill="#fff"/></svg>