<svg width="107" height="89" fill="none" xmlns="http://www.w3.org/2000/svg"><path d="M32.642 33.512a1.796 1.796 0 01-1.08-.881 1.82 1.82 0 01-.136-1.393 1.83 1.83 0 01.583-.882 1.807 1.807 0 012.751.543 1.835 1.835 0 01-.192 2.019 1.813 1.813 0 01-1.926.594zm2.024-3.817a1.798 1.798 0 01-1.08-.882 1.822 1.822 0 01-.136-1.392 1.83 1.83 0 01.583-.883 1.807 1.807 0 012.751.544 1.835 1.835 0 01-.192 2.018 1.813 1.813 0 01-1.926.595z" fill="#2B2E30" fill-opacity=".66"/><path opacity=".6" d="M41.1 33.319a1.363 1.363 0 01-.504-1.429 1.353 1.353 0 012.668.405 1.358 1.358 0 01-1.158 1.278 1.353 1.353 0 01-1.006-.254zm1.855-2.682a1.364 1.364 0 01-.505-1.428 1.366 1.366 0 011.119-1.016 1.35 1.35 0 011.36.652 1.371 1.371 0 01-.078 1.514 1.358 1.358 0 01-1.896.278zM45.257 28a1.364 1.364 0 01-.505-1.429 1.366 1.366 0 011.119-1.016 1.35 1.35 0 011.36.652 1.371 1.371 0 01-.077 1.514 1.358 1.358 0 01-1.897.279zm2.726-2.232a1.364 1.364 0 01-.504-1.428 1.366 1.366 0 011.118-1.016 1.35 1.35 0 011.36.652 1.371 1.371 0 01-.077 1.514 1.357 1.357 0 01-1.897.279zm3.025-1.823a1.364 1.364 0 01-.504-1.428 1.366 1.366 0 011.118-1.016 1.35 1.35 0 011.36.652 1.371 1.371 0 01-.077 1.514 1.358 1.358 0 01-1.897.278zm3.197-1.437a1.364 1.364 0 01-.505-1.429 1.366 1.366 0 011.119-1.015 1.348 1.348 0 011.36.651 1.37 1.37 0 01-.077 1.514 1.358 1.358 0 01-1.897.279zm3.408-.901a1.363 1.363 0 01-.504-1.429 1.366 1.366 0 011.118-1.015 1.348 1.348 0 011.36.651 1.371 1.371 0 01-.077 1.514 1.357 1.357 0 01-1.897.279zm3.453-.387a1.363 1.363 0 01-.505-1.428 1.353 1.353 0 012.668.405 1.37 1.37 0 01-.267.745 1.374 1.374 0 01-1.896.279zm3.515.085a1.364 1.364 0 01-.504-1.428 1.366 1.366 0 011.118-1.016 1.349 1.349 0 011.36.652 1.371 1.371 0 01-.077 1.514 1.358 1.358 0 01-1.897.278zm3.451.623a1.363 1.363 0 01-.505-1.428 1.353 1.353 0 012.668.405 1.358 1.358 0 01-1.158 1.278 1.353 1.353 0 01-1.005-.255zm3.368 1.073a1.364 1.364 0 01-.504-1.429 1.366 1.366 0 011.118-1.015 1.348 1.348 0 011.36.651 1.371 1.371 0 01-.077 1.514 1.357 1.357 0 01-1.897.279zm3.111 1.609a1.363 1.363 0 01-.504-1.428 1.366 1.366 0 011.118-1.016 1.35 1.35 0 011.36.651 1.371 1.371 0 01-.077 1.515 1.358 1.358 0 01-1.897.278zm2.897 1.995a1.364 1.364 0 01-.505-1.428 1.366 1.366 0 011.119-1.016 1.348 1.348 0 011.36.652 1.372 1.372 0 01-.077 1.514 1.353 1.353 0 01-1.897.279zm2.557 2.445a1.365 1.365 0 01-.504-1.428 1.366 1.366 0 011.118-1.016 1.35 1.35 0 011.36.652 1.371 1.371 0 01-.077 1.514 1.357 1.357 0 01-1.897.279zm2.195 2.746a1.364 1.364 0 01-.504-1.428 1.366 1.366 0 011.119-1.016 1.349 1.349 0 011.36.651 1.371 1.371 0 01-.077 1.514 1.357 1.357 0 01-1.897.28zm1.79 3.004a1.363 1.363 0 01-.504-1.429 1.366 1.366 0 011.118-1.016 1.348 1.348 0 011.36.652 1.37 1.37 0 01-.077 1.514 1.358 1.358 0 01-1.897.279zm1.3 3.259a1.364 1.364 0 01-.504-1.429 1.366 1.366 0 011.118-1.015 1.349 1.349 0 011.36.651 1.371 1.371 0 01-.077 1.514 1.377 1.377 0 01-1.897.279zm.852 3.454a1.364 1.364 0 01-.505-1.43 1.366 1.366 0 011.119-1.015 1.349 1.349 0 011.36.652A1.371 1.371 0 0188 41.234a1.357 1.357 0 01-1.897.279zm.384 3.539a1.364 1.364 0 01-.505-1.428 1.366 1.366 0 011.119-1.016 1.349 1.349 0 011.36.652 1.371 1.371 0 01-.078 1.514 1.358 1.358 0 01-1.897.278zm-.128 3.54a1.364 1.364 0 01-.505-1.428 1.365 1.365 0 011.119-1.016 1.348 1.348 0 011.36.652 1.371 1.371 0 01-.077 1.514 1.358 1.358 0 01-1.897.278zm-.682 3.454a1.365 1.365 0 01-.504-1.429 1.366 1.366 0 011.119-1.015 1.349 1.349 0 011.36.651 1.371 1.371 0 01-.078 1.514 1.358 1.358 0 01-1.897.28zm-1.172 3.303A1.363 1.363 0 0184 53.92a1.366 1.366 0 011.118-1.015 1.348 1.348 0 011.36.651 1.37 1.37 0 01-.077 1.514 1.358 1.358 0 01-1.897.279zm-1.599 3.132a1.364 1.364 0 01-.504-1.429 1.366 1.366 0 011.119-1.015 1.348 1.348 0 011.36.651 1.372 1.372 0 01-.078 1.514 1.353 1.353 0 01-1.897.279zm-2.024 2.874a1.365 1.365 0 01-.504-1.428 1.366 1.366 0 011.118-1.016 1.35 1.35 0 011.36.651 1.371 1.371 0 01-.077 1.515 1.358 1.358 0 01-1.897.278zm-2.407 2.574a1.363 1.363 0 01-.505-1.429 1.366 1.366 0 011.119-1.016 1.348 1.348 0 011.36.652 1.371 1.371 0 01-.077 1.514 1.358 1.358 0 01-1.897.279zm-2.77 2.166a1.363 1.363 0 01-.505-1.428c.066-.262.207-.498.407-.679a1.352 1.352 0 012.072.314 1.37 1.37 0 01-.077 1.515 1.358 1.358 0 01-1.897.278zm-3.004 1.76a1.364 1.364 0 01-.504-1.429 1.366 1.366 0 011.119-1.016 1.35 1.35 0 011.36.652 1.371 1.371 0 01-.078 1.514 1.357 1.357 0 01-1.896.279zm-3.219 1.266a1.363 1.363 0 01-.504-1.429 1.366 1.366 0 011.118-1.015 1.348 1.348 0 011.36.651 1.37 1.37 0 01-.077 1.514 1.353 1.353 0 01-1.897.279zm-3.408.815a1.364 1.364 0 01-.504-1.43 1.366 1.366 0 011.118-1.015 1.35 1.35 0 011.36.652 1.371 1.371 0 01-.077 1.514 1.358 1.358 0 01-1.897.279zm-3.516.322a1.364 1.364 0 01-.504-1.429 1.366 1.366 0 011.118-1.016 1.348 1.348 0 011.36.652 1.371 1.371 0 01-.077 1.514 1.353 1.353 0 01-1.897.279zm-3.58-.173a1.363 1.363 0 01-.504-1.428 1.366 1.366 0 011.118-1.016 1.348 1.348 0 011.36.651 1.371 1.371 0 01-.077 1.515 1.357 1.357 0 01-1.897.278zm-3.664-.708a1.363 1.363 0 01-.505-1.428 1.353 1.353 0 012.668.405 1.358 1.358 0 01-2.164 1.024zm-3.473-1.351a1.363 1.363 0 01-.504-1.428 1.366 1.366 0 011.118-1.016 1.349 1.349 0 011.36.652 1.371 1.371 0 01-.077 1.514 1.357 1.357 0 01-1.897.278zm-3.282-1.823a1.364 1.364 0 01-.504-1.428 1.366 1.366 0 011.118-1.016 1.349 1.349 0 011.36.651 1.371 1.371 0 01-.077 1.515 1.358 1.358 0 01-1.897.278zm-2.833-2.274a1.363 1.363 0 01-.505-1.429 1.36 1.36 0 01.407-.678 1.353 1.353 0 012.262 1.083 1.358 1.358 0 01-2.164 1.024zm-2.685-2.83a1.363 1.363 0 01-.505-1.429 1.366 1.366 0 011.12-1.015 1.348 1.348 0 011.36.651 1.37 1.37 0 01-.078 1.514 1.358 1.358 0 01-1.897.279zm-2.11-3.112a1.363 1.363 0 01-.505-1.428 1.352 1.352 0 012.479-.364 1.372 1.372 0 01-.078 1.514 1.353 1.353 0 01-1.897.279z" fill="#2B2E30" fill-opacity=".66"/><path d="M37.16 26.305a1.797 1.797 0 01-1.081-.881 1.823 1.823 0 01-.135-1.393 1.82 1.82 0 01.878-1.082 1.804 1.804 0 012.456.743c.228.427.279.927.14 1.39a1.812 1.812 0 01-.874 1.09 1.786 1.786 0 01-1.385.133zm2.918-3.26a1.798 1.798 0 01-1.08-.882 1.822 1.822 0 01-.135-1.392c.103-.346.306-.653.583-.883a1.807 1.807 0 012.75.544 1.836 1.836 0 01-.192 2.019 1.813 1.813 0 01-1.926.594zm3.431-2.832a1.797 1.797 0 01-1.08-.88 1.821 1.821 0 01-.135-1.393c.103-.346.306-.653.583-.883a1.807 1.807 0 012.75.544 1.835 1.835 0 01-.192 2.018 1.813 1.813 0 01-1.926.595zm7.777-4.162a1.8 1.8 0 01-1.08-.881 1.822 1.822 0 01-.135-1.393c.103-.345.306-.652.583-.882a1.808 1.808 0 012.75.544 1.835 1.835 0 01-.191 2.018 1.814 1.814 0 01-1.927.594zm4.177-1.286a1.796 1.796 0 01-1.08-.881 1.821 1.821 0 01-.135-1.393c.103-.346.306-.653.583-.882a1.807 1.807 0 012.75.543 1.835 1.835 0 01-.191 2.019 1.813 1.813 0 01-1.927.594zm4.346-.665a1.797 1.797 0 01-1.08-.882 1.822 1.822 0 01-.135-1.393c.138-.463.454-.852.878-1.082.423-.23.92-.28 1.381-.14.46.14.847.457 1.075.883.228.427.278.927.14 1.39a1.811 1.811 0 01-.874 1.09 1.786 1.786 0 01-1.385.133zm4.39-.086a1.798 1.798 0 01-1.08-.882 1.823 1.823 0 01-.135-1.392 1.82 1.82 0 01.583-.883 1.809 1.809 0 012.752.543 1.835 1.835 0 01-.192 2.02 1.814 1.814 0 01-1.928.594zm4.411.579a1.797 1.797 0 01-1.081-.88 1.824 1.824 0 01-.135-1.394c.103-.345.306-.652.583-.882a1.807 1.807 0 012.75.544 1.835 1.835 0 01-.191 2.018 1.813 1.813 0 01-1.927.594zm4.155 1.159a1.796 1.796 0 01-1.08-.882 1.822 1.822 0 01-.135-1.393 1.807 1.807 0 013.334-.338 1.835 1.835 0 01-.193 2.018 1.813 1.813 0 01-1.926.595zm4.09 1.672a1.8 1.8 0 01-1.08-.88 1.822 1.822 0 01-.136-1.394 1.84 1.84 0 01.583-.882 1.808 1.808 0 012.751.544 1.834 1.834 0 01-.192 2.018 1.814 1.814 0 01-1.926.595zm3.729 2.296a1.798 1.798 0 01-1.08-.881 1.819 1.819 0 01-.136-1.393 1.83 1.83 0 01.583-.883 1.808 1.808 0 012.753.544 1.835 1.835 0 01-.193 2.02 1.814 1.814 0 01-1.927.593zm3.473 2.68a1.797 1.797 0 01-1.08-.88 1.823 1.823 0 01-.136-1.393 1.83 1.83 0 01.583-.883 1.81 1.81 0 012.753.543 1.836 1.836 0 01-.193 2.02 1.813 1.813 0 01-1.927.594zm3.046 3.198a1.796 1.796 0 01-1.08-.882 1.821 1.821 0 01-.135-1.393c.103-.345.306-.653.583-.883a1.808 1.808 0 012.752.544 1.836 1.836 0 01-.192 2.02 1.814 1.814 0 01-1.928.593zm2.622 3.582a1.797 1.797 0 01-1.08-.881 1.823 1.823 0 01-.135-1.393 1.807 1.807 0 013.334-.339 1.835 1.835 0 01-.193 2.019 1.813 1.813 0 01-1.926.594zm2.067 3.904a1.796 1.796 0 01-1.08-.882 1.821 1.821 0 01-.135-1.392c.103-.346.306-.653.583-.883a1.81 1.81 0 012.753.543 1.836 1.836 0 01-.193 2.02 1.814 1.814 0 01-1.928.594zm1.556 4.14a1.797 1.797 0 01-1.08-.881 1.823 1.823 0 01-.136-1.393c.145-.457.462-.838.883-1.062a1.804 1.804 0 011.369-.134c.456.138.84.451 1.069.871.229.42.284.915.154 1.376a1.817 1.817 0 01-.875 1.087 1.792 1.792 0 01-1.384.136zm.915 4.332a1.797 1.797 0 01-1.08-.881 1.822 1.822 0 01-.135-1.393 1.82 1.82 0 01.878-1.082c.423-.23.92-.28 1.38-.14.462.14.848.457 1.076.883.228.427.278.927.14 1.39a1.807 1.807 0 01-.874 1.09 1.786 1.786 0 01-1.385.133zm.427 4.42a1.799 1.799 0 01-1.08-.881 1.822 1.822 0 01-.135-1.393c.103-.346.306-.653.583-.882a1.808 1.808 0 012.75.543 1.835 1.835 0 01-.191 2.019 1.813 1.813 0 01-1.927.594zm-.234 4.461a1.799 1.799 0 01-1.08-.88 1.824 1.824 0 01-.136-1.394c.104-.345.306-.652.583-.882a1.807 1.807 0 012.751.544 1.836 1.836 0 01-.192 2.018 1.813 1.813 0 01-1.927.594zm-.811 4.376a1.798 1.798 0 01-1.08-.881 1.819 1.819 0 01-.135-1.393c.104-.345.306-.652.583-.882a1.808 1.808 0 012.751.544 1.835 1.835 0 01-.192 2.018 1.813 1.813 0 01-1.927.594zm-1.449 4.183a1.796 1.796 0 01-1.08-.881 1.82 1.82 0 01-.135-1.393 1.807 1.807 0 013.334-.339 1.834 1.834 0 01-.193 2.02 1.813 1.813 0 01-1.926.593zm-1.896 3.99a1.798 1.798 0 01-1.08-.881 1.82 1.82 0 01-.136-1.393c.103-.346.306-.653.583-.882a1.808 1.808 0 012.751.543 1.834 1.834 0 01-.192 2.019 1.814 1.814 0 01-1.927.594zm-2.6 3.646a1.797 1.797 0 01-1.08-.881 1.821 1.821 0 01-.134-1.393 1.829 1.829 0 01.878-1.082 1.805 1.805 0 012.456.743 1.833 1.833 0 01.14 1.39 1.809 1.809 0 01-.874 1.09 1.786 1.786 0 01-1.385.133zm-2.94 3.304a1.799 1.799 0 01-1.081-.881 1.823 1.823 0 01-.135-1.393c.103-.346.306-.653.583-.882a1.807 1.807 0 012.751.543 1.836 1.836 0 01-.192 2.019 1.813 1.813 0 01-1.927.594zm-3.387 2.852a1.797 1.797 0 01-1.08-.881 1.823 1.823 0 01-.136-1.393c.104-.346.306-.652.583-.882a1.807 1.807 0 012.751.544 1.835 1.835 0 01-.192 2.018 1.813 1.813 0 01-1.927.594zm-3.729 2.382a1.798 1.798 0 01-1.08-.881 1.822 1.822 0 01-.135-1.393c.104-.346.306-.653.583-.882a1.808 1.808 0 012.751.544 1.835 1.835 0 01-.192 2.018 1.814 1.814 0 01-1.927.594zm-3.986 1.78a1.797 1.797 0 01-1.08-.881 1.824 1.824 0 01-.135-1.393c.103-.346.306-.653.583-.882a1.807 1.807 0 012.751.543 1.835 1.835 0 01-.192 2.019 1.813 1.813 0 01-1.927.594zm-4.195 1.287a1.8 1.8 0 01-1.08-.88 1.823 1.823 0 01-.136-1.394c.145-.456.462-.838.883-1.061a1.804 1.804 0 012.438.737c.229.42.284.914.154 1.376a1.819 1.819 0 01-.876 1.086 1.794 1.794 0 01-1.383.136zm-4.349.686a1.796 1.796 0 01-1.08-.88 1.82 1.82 0 01-.135-1.394c.103-.346.306-.653.583-.883a1.81 1.81 0 012.752.544 1.836 1.836 0 01-.192 2.02 1.814 1.814 0 01-1.928.593zm-4.409.087a1.798 1.798 0 01-1.08-.881 1.822 1.822 0 01-.136-1.393c.104-.346.307-.653.584-.882a1.807 1.807 0 012.75.544 1.834 1.834 0 01-.192 2.018 1.814 1.814 0 01-1.926.594zm-4.412-.58a1.798 1.798 0 01-1.08-.88 1.824 1.824 0 01-.135-1.393c.103-.346.306-.653.583-.883a1.808 1.808 0 012.751.544 1.835 1.835 0 01-.192 2.019 1.813 1.813 0 01-1.927.594zm-4.24-1.137a1.8 1.8 0 01-1.08-.88 1.822 1.822 0 01-.135-1.394c.103-.345.306-.652.583-.882a1.809 1.809 0 012.75.544 1.834 1.834 0 01-.191 2.018 1.814 1.814 0 01-1.927.594zm-4.049-1.759a1.8 1.8 0 01-1.08-.881 1.822 1.822 0 01-.135-1.393c.103-.346.306-.653.583-.882a1.807 1.807 0 012.751.544 1.835 1.835 0 01-.192 2.018 1.813 1.813 0 01-1.927.594zm-3.814-2.209a1.8 1.8 0 01-1.08-.881 1.822 1.822 0 01-.135-1.393c.103-.346.306-.653.583-.882a1.808 1.808 0 012.751.543 1.834 1.834 0 01-.192 2.019 1.813 1.813 0 01-1.927.594zm-3.43-2.745a1.799 1.799 0 01-1.081-.882 1.823 1.823 0 01-.135-1.392c.103-.346.306-.653.583-.882a1.807 1.807 0 012.751.543 1.836 1.836 0 01-.192 2.019 1.813 1.813 0 01-1.927.594zm-3.26-3.39a1.797 1.797 0 01-1.08-.88 1.823 1.823 0 01-.136-1.394 1.84 1.84 0 01.583-.882 1.807 1.807 0 012.751.544 1.835 1.835 0 01-.192 2.018 1.813 1.813 0 01-1.926.594zm-2.642-3.775a1.796 1.796 0 01-1.08-.881 1.824 1.824 0 01-.136-1.393 1.83 1.83 0 01.583-.882 1.807 1.807 0 012.751.543 1.835 1.835 0 01-.192 2.019 1.813 1.813 0 01-1.926.594zm-1.811-4.333a1.8 1.8 0 01-1.08-.881 1.821 1.821 0 01-.136-1.393 1.83 1.83 0 01.583-.882 1.807 1.807 0 012.751.543 1.834 1.834 0 01-.192 2.019 1.813 1.813 0 01-1.926.594z" fill="#2B2E30" fill-opacity=".66"/><path opacity=".8" d="M37.267 33.514a1.8 1.8 0 01-1.08-.882 1.82 1.82 0 01-.135-1.392c.103-.346.306-.653.583-.883a1.808 1.808 0 012.751.544 1.834 1.834 0 01-.192 2.018 1.813 1.813 0 01-1.927.595zm2.302-3.497a1.798 1.798 0 01-1.08-.881 1.819 1.819 0 01-.136-1.393c.104-.346.306-.653.583-.882a1.808 1.808 0 012.751.543 1.834 1.834 0 01-.192 2.019 1.813 1.813 0 01-1.926.594zm2.811-3.239a1.796 1.796 0 01-1.08-.881 1.821 1.821 0 01-.135-1.393 1.83 1.83 0 01.583-.883 1.808 1.808 0 012.751.544 1.835 1.835 0 01-.192 2.019 1.813 1.813 0 01-1.926.594zm3.303-2.918a1.796 1.796 0 01-1.08-.88 1.82 1.82 0 01-.135-1.394c.138-.463.454-.852.878-1.082.424-.229.92-.28 1.381-.14.46.14.848.457 1.075.883.228.427.278.927.14 1.39a1.817 1.817 0 01-.876 1.087 1.793 1.793 0 01-1.383.136zm3.73-2.338a1.796 1.796 0 01-1.08-.882 1.821 1.821 0 01-.135-1.392c.103-.346.306-.653.583-.883a1.807 1.807 0 012.75.544 1.835 1.835 0 01-.191 2.019 1.813 1.813 0 01-1.927.594zm4.048-1.823a1.796 1.796 0 01-1.08-.882 1.821 1.821 0 01-.135-1.392c.103-.346.306-.653.583-.883a1.807 1.807 0 012.751.544 1.835 1.835 0 01-.192 2.019 1.813 1.813 0 01-1.927.594zm4.282-1.009a1.8 1.8 0 01-1.08-.88 1.82 1.82 0 01-.135-1.393c.103-.346.306-.653.583-.883a1.808 1.808 0 012.75.544 1.835 1.835 0 01-.192 2.018 1.813 1.813 0 01-1.926.595zm4.412-.45a1.796 1.796 0 01-1.08-.881 1.823 1.823 0 01-.135-1.393c.103-.345.306-.652.583-.882a1.807 1.807 0 012.75.544 1.835 1.835 0 01-.191 2.018 1.813 1.813 0 01-1.927.594zm4.41.3a1.797 1.797 0 01-1.08-.88 1.822 1.822 0 01-.135-1.393c.103-.346.306-.653.583-.882a1.807 1.807 0 012.75.543 1.835 1.835 0 01-.191 2.019 1.813 1.813 0 01-1.927.594zm4.305 1.008a1.8 1.8 0 01-1.081-.88 1.822 1.822 0 01-.135-1.394c.103-.345.306-.652.583-.882a1.808 1.808 0 012.75.544 1.835 1.835 0 01-.191 2.018 1.813 1.813 0 01-1.927.594zm4.069 1.674a1.798 1.798 0 01-1.08-.881 1.823 1.823 0 01-.135-1.393c.103-.346.306-.653.583-.882a1.808 1.808 0 012.75.544 1.834 1.834 0 01-.192 2.018 1.813 1.813 0 01-1.926.594zm3.729 2.338a1.799 1.799 0 01-1.08-.882 1.822 1.822 0 01-.136-1.392c.104-.346.307-.653.583-.883a1.807 1.807 0 012.751.544 1.835 1.835 0 01-.192 2.018 1.813 1.813 0 01-1.926.595zm3.388 2.81a1.797 1.797 0 01-1.08-.882 1.823 1.823 0 01-.135-1.392c.144-.457.461-.838.882-1.062a1.804 1.804 0 011.37-.134c.456.138.84.451 1.068.871a1.836 1.836 0 01-.171 2.012 1.786 1.786 0 01-1.227.664 1.772 1.772 0 01-.707-.077zm2.897 3.347a1.8 1.8 0 01-1.08-.881 1.823 1.823 0 01-.135-1.393c.103-.346.306-.652.583-.882a1.808 1.808 0 012.751.544 1.835 1.835 0 01-.192 2.018 1.804 1.804 0 01-1.927.594zm2.323 3.774a1.8 1.8 0 01-1.08-.88 1.823 1.823 0 01-.135-1.394c.103-.345.306-.652.583-.882a1.808 1.808 0 012.751.544 1.835 1.835 0 01-.192 2.018 1.813 1.813 0 01-1.927.594zm1.748 4.098a1.797 1.797 0 01-1.08-.881 1.823 1.823 0 01-.135-1.393c.144-.457.461-.838.882-1.062a1.804 1.804 0 011.37-.134 1.832 1.832 0 011.223 2.247 1.816 1.816 0 01-.876 1.087 1.792 1.792 0 01-1.384.136zm1.086 4.29a1.798 1.798 0 01-1.08-.882 1.82 1.82 0 01-.135-1.392 1.83 1.83 0 01.878-1.083c.424-.229.92-.28 1.382-.14.46.14.847.457 1.075.884.228.426.278.926.14 1.39a1.812 1.812 0 01-.874 1.09 1.786 1.786 0 01-1.385.133zm.362 4.418a1.797 1.797 0 01-1.08-.88 1.821 1.821 0 01-.135-1.393c.103-.346.306-.653.583-.883a1.807 1.807 0 012.75.544 1.835 1.835 0 01-.192 2.018 1.813 1.813 0 01-1.926.594zm-.277 4.441a1.8 1.8 0 01-1.08-.881 1.82 1.82 0 01-.135-1.393c.103-.346.306-.652.583-.882a1.809 1.809 0 012.751.544 1.834 1.834 0 01-.192 2.018 1.814 1.814 0 01-1.927.594zM89.15 55.07a1.797 1.797 0 01-1.08-.88 1.821 1.821 0 01-.135-1.393c.103-.346.306-.653.583-.882a1.807 1.807 0 012.751.543 1.835 1.835 0 01-.192 2.019 1.813 1.813 0 01-1.927.594zm-1.64 4.077a1.797 1.797 0 01-1.08-.881 1.82 1.82 0 01-.134-1.393c.103-.346.306-.653.583-.882a1.808 1.808 0 012.75.543 1.836 1.836 0 01-.192 2.019 1.813 1.813 0 01-1.926.594zm-2.302 3.775a1.8 1.8 0 01-1.08-.882 1.823 1.823 0 01-.135-1.392c.103-.346.306-.653.583-.883a1.807 1.807 0 012.75.544 1.835 1.835 0 01-.191 2.019 1.813 1.813 0 01-1.927.594zm-2.812 3.368a1.8 1.8 0 01-1.08-.881 1.82 1.82 0 01-.135-1.393c.103-.346.306-.653.583-.882a1.808 1.808 0 012.751.544 1.835 1.835 0 01-.192 2.018 1.814 1.814 0 01-1.927.594zm-3.323 2.938a1.797 1.797 0 01-1.08-.881 1.821 1.821 0 01-.135-1.393c.103-.346.306-.653.583-.882a1.807 1.807 0 012.75.543A1.835 1.835 0 0181 68.634a1.813 1.813 0 01-1.927.594zm-3.73 2.36a1.8 1.8 0 01-1.08-.881 1.824 1.824 0 01-.135-1.393 1.83 1.83 0 01.878-1.082 1.807 1.807 0 012.457.743 1.833 1.833 0 01.14 1.39 1.81 1.81 0 01-.875 1.09 1.786 1.786 0 01-1.385.133zm-4.069 1.695a1.798 1.798 0 01-1.08-.882 1.82 1.82 0 01-.135-1.392 1.828 1.828 0 01.878-1.082 1.805 1.805 0 012.457.743 1.834 1.834 0 01.14 1.39 1.809 1.809 0 01-.875 1.09 1.786 1.786 0 01-1.385.133zm-4.24 1.137a1.8 1.8 0 01-1.08-.882 1.82 1.82 0 01-.135-1.392c.103-.346.306-.653.583-.883a1.808 1.808 0 012.751.544 1.834 1.834 0 01-.192 2.018 1.814 1.814 0 01-1.927.594zm-4.41.364a1.797 1.797 0 01-1.08-.882 1.823 1.823 0 01-.136-1.392c.104-.346.307-.653.583-.883a1.808 1.808 0 012.751.544 1.835 1.835 0 01-.192 2.019 1.813 1.813 0 01-1.926.594zm-4.412-.364a1.798 1.798 0 01-1.08-.882 1.819 1.819 0 01-.135-1.392c.103-.346.306-.653.583-.883a1.809 1.809 0 012.751.544 1.834 1.834 0 01-.192 2.018 1.814 1.814 0 01-1.927.594zm-4.282-.987a1.8 1.8 0 01-1.08-.881 1.822 1.822 0 01-.135-1.393 1.831 1.831 0 01.878-1.082 1.805 1.805 0 012.457.743 1.833 1.833 0 01.14 1.39 1.815 1.815 0 01-.876 1.087 1.793 1.793 0 01-1.384.136zm-4.113-1.673a1.798 1.798 0 01-1.08-.882 1.82 1.82 0 01-.135-1.392c.103-.346.306-.653.583-.883a1.808 1.808 0 012.75.544 1.835 1.835 0 01-.192 2.018 1.813 1.813 0 01-1.926.595zm-3.75-2.274a1.797 1.797 0 01-1.08-.882 1.823 1.823 0 01-.136-1.392c.104-.346.307-.653.583-.883a1.807 1.807 0 012.751.544 1.835 1.835 0 01-.192 2.018 1.813 1.813 0 01-1.926.594zm-3.344-2.853a1.797 1.797 0 01-1.08-.882 1.824 1.824 0 01-.136-1.392 1.83 1.83 0 01.583-.882 1.807 1.807 0 012.751.543 1.835 1.835 0 01-.192 2.019 1.813 1.813 0 01-1.926.594zm-2.897-3.325a1.797 1.797 0 01-1.08-.881 1.821 1.821 0 01-.136-1.393c.104-.346.307-.652.583-.882a1.807 1.807 0 012.751.544 1.835 1.835 0 01-.192 2.018 1.813 1.813 0 01-1.926.594zM37.5 59.082a1.8 1.8 0 01-1.08-.882 1.823 1.823 0 01-.134-1.392c.103-.346.306-.653.583-.883a1.808 1.808 0 012.75.544 1.836 1.836 0 01-.191 2.018 1.803 1.803 0 01-1.927.594z" fill="#2B2E30" fill-opacity=".66"/><path d="M47.302 17.875a1.796 1.796 0 01-1.08-.881 1.82 1.82 0 01-.135-1.393c.103-.346.306-.653.583-.882a1.807 1.807 0 012.75.543 1.835 1.835 0 01-.192 2.019 1.813 1.813 0 01-1.926.594z" fill="#2B2E30" fill-opacity=".66"/><path opacity=".6" d="M26.098 29.866a.924.924 0 01-.192-1.287.896.896 0 01.94-.344.89.89 0 01.317.15.924.924 0 01-.396 1.649.887.887 0 01-.669-.168zm1.598-3.583a.924.924 0 01.396-1.648.89.89 0 01.67.168.925.925 0 01.191 1.287.892.892 0 01-.94.346.886.886 0 01-.317-.153zm2.322-3.345a.924.924 0 01.397-1.648.89.89 0 01.668.167.924.924 0 01.192 1.287.89.89 0 01-.94.347.886.886 0 01-.317-.153zm4.9-5.835a.924.924 0 01.397-1.648.89.89 0 01.669.168.922.922 0 01.348.964.925.925 0 01-.41.569.885.885 0 01-1.004-.053zm-2.62 2.788a.924.924 0 01-.192-1.287.896.896 0 01.94-.344.92.92 0 01.666 1.115.925.925 0 01-.411.568.89.89 0 01-1.003-.052zm5.41-5.211a.924.924 0 01.397-1.649.89.89 0 01.669.168.924.924 0 01.192 1.287.895.895 0 01-.94.345.89.89 0 01-.318-.152zm2.984-2.275a.924.924 0 01.397-1.647.89.89 0 01.669.167.924.924 0 01.192 1.287.895.895 0 01-.94.345.89.89 0 01-.318-.152zm3.238-1.909a.924.924 0 01.397-1.648.89.89 0 01.669.167.924.924 0 01.192 1.288.89.89 0 01-.94.346.886.886 0 01-.317-.153zm3.346-1.566a.924.924 0 01-.192-1.287.895.895 0 01.94-.344.9.9 0 01.317.151.924.924 0 01.192 1.287.895.895 0 01-.94.345.89.89 0 01-.317-.151zm3.558-1.287a.924.924 0 01-.192-1.287.897.897 0 01.94-.344.92.92 0 01.666 1.115.926.926 0 01-.41.569.885.885 0 01-1.004-.053zm3.603-.901a.924.924 0 01.396-1.648.889.889 0 01.669.167.924.924 0 01.192 1.287.89.89 0 01-.94.347.886.886 0 01-.317-.153zm3.707-.622a.924.924 0 01.397-1.647.89.89 0 01.669.167.924.924 0 01.191 1.288.893.893 0 01-.94.345.89.89 0 01-.317-.152zm3.708-.236a.925.925 0 01.066-1.527.89.89 0 011 .047.924.924 0 01.191 1.287.895.895 0 01-.94.345.89.89 0 01-.317-.152zm3.685.106a.925.925 0 01.066-1.526.89.89 0 011 .046.922.922 0 01.348.964.926.926 0 01-.41.57.885.885 0 01-1.004-.053zm3.708.452a.924.924 0 01.397-1.648.889.889 0 01.669.167.924.924 0 01.191 1.288.893.893 0 01-.94.345.888.888 0 01-.317-.152zm3.558.837A.924.924 0 0173.2 5.63a.89.89 0 01.668.167.924.924 0 01.192 1.287.894.894 0 01-.94.345.89.89 0 01-.317-.151zm3.56 1.072a.924.924 0 01.396-1.648.89.89 0 01.67.168.924.924 0 01.19 1.287.895.895 0 01-.939.344.892.892 0 01-.317-.15zm3.407 1.48a.924.924 0 01.398-1.648.889.889 0 01.668.168.924.924 0 01.192 1.287.892.892 0 01-.94.346.886.886 0 01-.317-.153zm3.261 1.802a.924.924 0 01.397-1.648.89.89 0 01.669.167.925.925 0 01-.067 1.527.892.892 0 01-.999-.046zm3.047 2.037a.924.924 0 01.396-1.647.89.89 0 01.67.167.92.92 0 01.347.964.926.926 0 01-.41.568.888.888 0 01-1.003-.051zm2.792 2.36a.924.924 0 01.396-1.648.89.89 0 01.669.168.923.923 0 01.348.964.926.926 0 01-.41.569.885.885 0 01-1.004-.053zm2.62 2.617a.924.924 0 01-.192-1.288.895.895 0 01.94-.344c.115.029.223.08.317.151a.924.924 0 01-.396 1.648.89.89 0 01-.669-.167zm2.43 2.833a.924.924 0 01.396-1.649.89.89 0 01.669.168.924.924 0 01-.397 1.648.887.887 0 01-.668-.168zm2.13 3.109a.925.925 0 01.066-1.527.89.89 0 011 .047.923.923 0 01.191 1.287.892.892 0 01-.94.346.887.887 0 01-.317-.153zm1.768 3.196a.925.925 0 01.067-1.527.89.89 0 01.999.047.924.924 0 01.192 1.287.896.896 0 01-.589.362.885.885 0 01-.669-.169zm1.491 3.497a.924.924 0 01-.192-1.288.895.895 0 01.939-.344.922.922 0 01.51 1.439.892.892 0 01-.94.345.888.888 0 01-.317-.152zm1.236 3.54a.925.925 0 01.067-1.527.89.89 0 01.999.046.927.927 0 01-.066 1.529.884.884 0 01-1-.048zm.917 3.581a.926.926 0 01.067-1.527.89.89 0 01.998.046.923.923 0 01.192 1.288.888.888 0 01-1.257.193zm.447 3.733a.925.925 0 01.067-1.527.89.89 0 01.999.046.925.925 0 01.191 1.288.89.89 0 01-1.257.193zm.106 3.732a.925.925 0 01.067-1.527.89.89 0 01.999.047.927.927 0 01-.066 1.528.884.884 0 01-1-.048zm-.17 3.732a.926.926 0 01.067-1.527.89.89 0 01.999.047.927.927 0 01-.067 1.527.89.89 0 01-.999-.047zm-.554 3.69a.929.929 0 01.067-1.527.89.89 0 01.999.047.915.915 0 01-.39 1.642.904.904 0 01-.676-.162zm-.917 3.668a.926.926 0 01.067-1.527.89.89 0 01.999.047.925.925 0 01.191 1.287.888.888 0 01-.939.346.89.89 0 01-.318-.153zm-1.277 3.539a.924.924 0 01.397-1.648.89.89 0 01.668.168.922.922 0 01.192 1.287.89.89 0 01-.94.346.886.886 0 01-.317-.153zm-1.641 3.476a.925.925 0 01.067-1.527.89.89 0 01.999.046.924.924 0 01.191 1.288.894.894 0 01-.94.345.892.892 0 01-.317-.152zm-1.896 3.239a.924.924 0 01-.192-1.288.897.897 0 01.94-.344.9.9 0 01.317.151.924.924 0 01.192 1.288.892.892 0 01-.94.346.886.886 0 01-.317-.153zm-2.238 3.045a.924.924 0 01.397-1.647.887.887 0 01.669.167.925.925 0 01-.067 1.527.89.89 0 01-.999-.047zm-2.45 2.81a.924.924 0 01.397-1.647.889.889 0 01.668.167.923.923 0 01.192 1.287.897.897 0 01-.94.345.891.891 0 01-.317-.151zm-2.728 2.617a.925.925 0 01.066-1.527.891.891 0 011 .047.925.925 0 01.191 1.287.896.896 0 01-.588.362.887.887 0 01-.67-.169zm-2.984 2.253a.924.924 0 01-.191-1.287.897.897 0 01.94-.345.924.924 0 01.51 1.438.897.897 0 01-.94.345.891.891 0 01-.319-.151zm-3.173 2.016a.924.924 0 01-.192-1.287.898.898 0 01.588-.361.89.89 0 01.67.167.92.92 0 01.347.965.923.923 0 01-.41.567.887.887 0 01-1.003-.051zm-3.345 1.695a.924.924 0 01-.192-1.288.899.899 0 01.588-.36.889.889 0 01.67.167.924.924 0 01.191 1.288.896.896 0 01-.588.362.886.886 0 01-.67-.17zm-3.496 1.372a.924.924 0 01.397-1.647.891.891 0 01.669.167.925.925 0 01.192 1.287.89.89 0 01-1.258.194zm-3.579 1.094a.924.924 0 01-.191-1.287.895.895 0 01.94-.344.9.9 0 01.317.151.924.924 0 01.192 1.287.895.895 0 01-.94.345.89.89 0 01-.318-.152zm-3.664.601a.924.924 0 01-.192-1.288.898.898 0 01.94-.344.9.9 0 01.317.151.925.925 0 01.192 1.288.878.878 0 01-.587.37.868.868 0 01-.67-.177zm-3.708.407a.925.925 0 01.067-1.526.89.89 0 01.999.046.924.924 0 01.192 1.287.892.892 0 01-.94.346.887.887 0 01-.318-.153zm-3.687-.042a.924.924 0 01-.192-1.287.898.898 0 01.94-.345.924.924 0 01.51 1.438.894.894 0 01-.94.346.89.89 0 01-.318-.152zm-3.708-.343a.924.924 0 01-.191-1.288.896.896 0 01.94-.344.919.919 0 01.682.755.928.928 0 01-.427.93.885.885 0 01-1.004-.053zm-3.685-.772a.924.924 0 01-.192-1.288.896.896 0 01.94-.344.915.915 0 01.52 1.427.907.907 0 01-1.268.205zm-3.665-1.052a.923.923 0 01-.192-1.287.897.897 0 01.94-.344c.115.029.223.08.318.151a.924.924 0 01.191 1.287.892.892 0 01-.588.364.883.883 0 01-.669-.17zm-3.345-1.351a.925.925 0 01.066-1.527.892.892 0 011 .047.924.924 0 01.191 1.287.895.895 0 01-.94.345.89.89 0 01-.317-.152zm-3.261-1.738a.924.924 0 01-.192-1.287.896.896 0 01.94-.344c.114.028.222.08.317.15a.924.924 0 01.192 1.288.892.892 0 01-.588.363.883.883 0 01-.67-.17zm-3.154-2.016a.924.924 0 01.397-1.648.891.891 0 01.669.168.92.92 0 01.348.964.926.926 0 01-.41.567.891.891 0 01-1.004-.05zm-3.003-2.209a.924.924 0 01-.192-1.288.897.897 0 01.94-.344c.115.029.223.08.317.151a.924.924 0 01.192 1.288.896.896 0 01-.94.344.891.891 0 01-.317-.151zm-2.663-2.575a.924.924 0 01.397-1.648.89.89 0 01.668.168.924.924 0 01.192 1.287.89.89 0 01-.94.346.886.886 0 01-.317-.153zm-2.451-2.767a.924.924 0 01.397-1.647.887.887 0 01.668.167.924.924 0 01.192 1.287.895.895 0 01-.94.345.892.892 0 01-.317-.152zm-2.175-3.024a.924.924 0 01.397-1.648.89.89 0 01.669.168.924.924 0 01.192 1.287.891.891 0 01-.94.346.886.886 0 01-.318-.153zm-1.808-3.217a.924.924 0 01-.192-1.288.896.896 0 01.94-.344.9.9 0 01.317.151.925.925 0 01.192 1.288.89.89 0 01-.94.346.886.886 0 01-.317-.153zm-1.6-3.39a.924.924 0 01-.191-1.287.896.896 0 01.94-.344c.114.029.222.08.317.15a.924.924 0 01-.397 1.649.89.89 0 01-.668-.168zm-1.278-3.475a.924.924 0 01.396-1.648.888.888 0 01.669.168.924.924 0 01.192 1.287.896.896 0 01-.94.344.891.891 0 01-.317-.151zm.234-23.746a.924.924 0 01-.192-1.287.897.897 0 01.94-.344.92.92 0 01.666 1.115.926.926 0 01-.41.568.887.887 0 01-1.004-.052z" fill="#2B2E30" fill-opacity=".66"/><path opacity=".4" d="M22.495 29.867a.924.924 0 01-.192-1.288.895.895 0 01.94-.344.92.92 0 01.666 1.115.926.926 0 01-.411.568.887.887 0 01-1.003-.051zm1.812-4.011a.924.924 0 01-.191-1.288.895.895 0 01.94-.344.9.9 0 01.317.151.924.924 0 01.192 1.288.895.895 0 01-.94.345.888.888 0 01-.318-.152zm1.959-3.475a.925.925 0 01.067-1.527.89.89 0 01.998.047.924.924 0 01.192 1.287.892.892 0 01-.94.346.887.887 0 01-.317-.153zm2.366-3.304a.924.924 0 01.397-1.648.89.89 0 01.668.167.924.924 0 01.192 1.288.894.894 0 01-.94.345.89.89 0 01-.317-.152zm2.62-2.96a.924.924 0 01-.192-1.287.898.898 0 01.94-.345.924.924 0 01.51 1.438.89.89 0 01-.94.347.886.886 0 01-.318-.153zm2.792-2.789a.924.924 0 01.397-1.648.89.89 0 01.668.168.924.924 0 01.192 1.287.89.89 0 01-.94.346.886.886 0 01-.317-.153zm3.111-2.468a.924.924 0 01.397-1.647.89.89 0 01.669.167.924.924 0 01.191 1.288.897.897 0 01-.94.344.891.891 0 01-.317-.151zm3.259-2.23a.925.925 0 01.067-1.527.89.89 0 01.999.047.924.924 0 01.192 1.287.894.894 0 01-.94.345.889.889 0 01-.318-.152zm3.475-1.823a.924.924 0 01.396-1.648.89.89 0 01.669.167.921.921 0 01.348.965.926.926 0 01-.41.567.889.889 0 01-1.004-.051zm3.684-1.63a.924.924 0 01.397-1.648.89.89 0 01.669.168.924.924 0 01.192 1.287.892.892 0 01-.94.345.889.889 0 01-.318-.152zm3.751-1.244a.924.924 0 01-.192-1.287.896.896 0 01.94-.345.924.924 0 01.51 1.438.895.895 0 01-.94.346.89.89 0 01-.319-.152zm3.963-.794a.924.924 0 01-.192-1.288.896.896 0 01.94-.344c.115.029.223.08.318.151a.924.924 0 01-.397 1.648.889.889 0 01-.669-.167zm3.965-.451A.924.924 0 0159.06 1.4a.898.898 0 01.94-.344.9.9 0 01.317.151.924.924 0 01.192 1.288.894.894 0 01-.94.345.888.888 0 01-.317-.152zm3.941-.15A.924.924 0 0163.59.89a.89.89 0 01.668.168.92.92 0 01.349.964.926.926 0 01-.41.569.884.884 0 01-1.004-.053zm3.985.237a.924.924 0 01.397-1.648.89.89 0 01.668.167.924.924 0 01.192 1.288.89.89 0 01-.94.346.886.886 0 01-.317-.153zm3.899.621a.924.924 0 01-.192-1.287.898.898 0 01.94-.344.921.921 0 01.666 1.115.926.926 0 01-.41.569.885.885 0 01-1.004-.053zm3.898.966a.924.924 0 01.397-1.648.89.89 0 01.669.167.924.924 0 01.192 1.288.893.893 0 01-.94.345.89.89 0 01-.318-.152zm3.687 1.351a.924.924 0 01.397-1.648.889.889 0 01.669.168.924.924 0 01.192 1.287.894.894 0 01-.94.346.889.889 0 01-.318-.153zm3.622 1.652a.924.924 0 01-.192-1.287.896.896 0 01.94-.344c.115.028.223.08.318.15a.924.924 0 01.192 1.288.892.892 0 01-.94.346.886.886 0 01-.318-.153zm3.451 2.059a.924.924 0 01.397-1.648.889.889 0 01.669.168.924.924 0 01.192 1.287.89.89 0 01-.94.346.886.886 0 01-.318-.153zm3.177 2.36a.924.924 0 01-.193-1.287.898.898 0 01.94-.344c.115.029.223.08.318.151a.924.924 0 01.192 1.287.895.895 0 01-.94.345.89.89 0 01-.317-.152zm3.024 2.553a.924.924 0 01.397-1.648.89.89 0 01.668.168.924.924 0 01.192 1.287.894.894 0 01-.94.345.888.888 0 01-.317-.152zm2.748 2.81a.924.924 0 01.397-1.648.89.89 0 01.669.168.924.924 0 01.192 1.287.896.896 0 01-.589.362.886.886 0 01-.669-.169zm2.41 3.11a.924.924 0 01.397-1.648.89.89 0 01.668.167.924.924 0 01.192 1.288.894.894 0 01-.94.345.888.888 0 01-.317-.152zm2.107 3.368a.924.924 0 01-.191-1.287.897.897 0 01.94-.344.931.931 0 01.682.755.929.929 0 01-.427.929.888.888 0 01-1.004-.053zm1.94 3.475a.923.923 0 01-.192-1.287.889.889 0 011.257-.193.922.922 0 01.192 1.287.891.891 0 01-.94.346.878.878 0 01-.317-.153zm1.535 3.69a.926.926 0 01.067-1.528.888.888 0 01.999.047.927.927 0 01-.066 1.528.881.881 0 01-1-.048zm1.215 3.817a.923.923 0 01-.192-1.287.889.889 0 011.257-.193.932.932 0 01.364.604.928.928 0 01-.167.686.895.895 0 01-1.262.19zm.809 3.925a.922.922 0 01-.192-1.287.888.888 0 011.257-.193.927.927 0 01-.067 1.527.89.89 0 01-.998-.047zm.469 3.99a.922.922 0 01-.192-1.287.888.888 0 011.257-.193.917.917 0 01.364.604.929.929 0 01-.426.928.892.892 0 01-.685.103.884.884 0 01-.318-.155zm.086 4.012a.922.922 0 01-.192-1.287.888.888 0 011.257-.194.923.923 0 01.192 1.288.89.89 0 01-1.257.193zm-.256 3.968a.922.922 0 01-.192-1.288.889.889 0 011.257-.193.922.922 0 01.192 1.288.888.888 0 01-1.257.193zm-.663 3.925a.926.926 0 01.067-1.527.888.888 0 01.999.047.93.93 0 01.364.604.917.917 0 01-.759 1.05.884.884 0 01-.671-.174zm-1.001 3.883a.927.927 0 01.067-1.527.888.888 0 01.999.047.93.93 0 01-.066 1.529.881.881 0 01-1-.049zm-1.32 3.754a.927.927 0 01.067-1.527.89.89 0 01.999.047.926.926 0 01.192 1.287.907.907 0 01-.589.361.886.886 0 01-.669-.168zm-1.747 3.668a.922.922 0 01-.192-1.287.888.888 0 011.257-.194.931.931 0 01.349.965.937.937 0 01-.411.568.896.896 0 01-.685.102.885.885 0 01-.318-.154zM98.18 69.25a.924.924 0 01-.193-1.287.896.896 0 01.94-.344c.115.029.223.08.318.151a.924.924 0 01.192 1.287.892.892 0 01-1.258.194zm-2.43 3.196a.924.924 0 01-.192-1.287.898.898 0 01.94-.344.922.922 0 01.666 1.115.923.923 0 01-.411.567.89.89 0 01-1.003-.05zm-2.641 3.046a.924.924 0 01.397-1.648.891.891 0 01.668.168.925.925 0 01.192 1.287.894.894 0 01-.94.345.89.89 0 01-.317-.152zm-2.941 2.682a.925.925 0 01.066-1.528.89.89 0 011 .047.924.924 0 01.191 1.287.898.898 0 01-.94.345.893.893 0 01-.317-.151zm-3.195 2.423a.923.923 0 01-.192-1.287.896.896 0 01.94-.344.919.919 0 01.682.755.929.929 0 01-.428.927.892.892 0 01-1.002-.051zm-3.326 2.145a.924.924 0 01-.192-1.287.896.896 0 01.94-.344.922.922 0 01.515 1.442.894.894 0 01-.945.344.89.89 0 01-.318-.155zm-3.579 1.845a.924.924 0 01-.192-1.287.896.896 0 01.94-.344c.115.028.223.08.318.15a.924.924 0 01.192 1.288.89.89 0 01-.94.346.886.886 0 01-.318-.153zm-3.623 1.523a.924.924 0 01-.191-1.287.896.896 0 01.94-.344.9.9 0 01.317.151.924.924 0 01.192 1.288.896.896 0 01-.94.344.891.891 0 01-.318-.151zm-3.792 1.094a.923.923 0 01-.192-1.287.899.899 0 01.588-.36.89.89 0 01.669.167.925.925 0 01.192 1.287.892.892 0 01-.94.346.886.886 0 01-.317-.153zm-3.836.729a.925.925 0 01.067-1.527.89.89 0 01.999.047.924.924 0 01.192 1.287.898.898 0 01-.94.344.893.893 0 01-.318-.15zm-3.899.429a.925.925 0 01.067-1.526.891.891 0 01.999.046.924.924 0 01.191 1.287.892.892 0 01-.588.363.883.883 0 01-.669-.17zm-3.984.065a.924.924 0 01-.192-1.288.895.895 0 01.94-.344c.115.029.223.08.318.151a.924.924 0 01.191 1.288.893.893 0 01-.588.363.883.883 0 01-.669-.17zm-3.942-.322a.924.924 0 01.397-1.648.89.89 0 01.668.167.92.92 0 01.349.965.926.926 0 01-.411.567.89.89 0 01-1.003-.051zm-3.879-.644a.924.924 0 01.397-1.648.89.89 0 01.669.168.922.922 0 01.348.964.926.926 0 01-.411.567.892.892 0 01-1.003-.05zM49.3 86.39a.924.924 0 01.398-1.649.89.89 0 01.668.168.921.921 0 01.349.964.926.926 0 01-.41.569.885.885 0 01-1.004-.053zm-3.707-1.417a.924.924 0 01-.192-1.287.898.898 0 01.94-.345.925.925 0 01.51 1.439.892.892 0 01-.94.346.887.887 0 01-.318-.153zm-3.497-1.694a.924.924 0 01.397-1.648.888.888 0 01.669.167.923.923 0 01.348.965.926.926 0 01-.41.568.884.884 0 01-1.004-.052zm-3.365-1.995a.924.924 0 01.397-1.648.89.89 0 01.669.167.924.924 0 01-.397 1.648.89.89 0 01-.669-.167zm-3.195-2.359a.925.925 0 01.066-1.527.89.89 0 011 .046.924.924 0 01-.398 1.648.89.89 0 01-.668-.167zm-2.983-2.618a.924.924 0 01-.192-1.287.896.896 0 01.94-.344.919.919 0 01.682.755.928.928 0 01-.428.927.892.892 0 01-1.002-.05zm-2.792-2.874a.925.925 0 01.067-1.527.89.89 0 01.999.047.924.924 0 01.192 1.287.896.896 0 01-.94.344.891.891 0 01-.318-.151zm-2.366-3.175a.924.924 0 01.397-1.648.89.89 0 01.669.167.92.92 0 01.348.965.926.926 0 01-.41.567.89.89 0 01-1.004-.051zm-2.151-3.346a.924.924 0 01-.191-1.288.896.896 0 01.94-.344.9.9 0 01.317.151.924.924 0 01.192 1.288.892.892 0 01-.94.346.887.887 0 01-.318-.153zm-1.81-3.604a.924.924 0 01-.192-1.287.898.898 0 01.94-.344c.114.029.222.08.317.15a.924.924 0 01.192 1.288.89.89 0 01-.94.346.884.884 0 01-.317-.153zm-1.194-3.045a.924.924 0 01-.193-1.288.897.897 0 01.94-.344c.115.029.223.08.318.151a.924.924 0 01.192 1.288.893.893 0 01-1.258.193zm-1.173-3.111a.924.924 0 01-.192-1.287.897.897 0 01.94-.345.924.924 0 01.51 1.438.895.895 0 01-.94.346.89.89 0 01-.318-.152zm.277-23.746a.925.925 0 01.067-1.527.89.89 0 01.999.046.922.922 0 01.348.965.926.926 0 01-.41.567.888.888 0 01-1.004-.051z" fill="#2B2E30" fill-opacity=".66"/><path d="M15.36 35.53c.024.395-.041.791-.191 1.158-.128.254-.277.386-.469.386h-1.79c.25.252.432.561.533.901.11.34.166.694.168 1.051a5.476 5.476 0 01-.447 2.274 4.676 4.676 0 01-1.257 1.674 5.81 5.81 0 01-1.982 1.028 8.878 8.878 0 01-2.6.343 5.72 5.72 0 01-1.384-.17 3.372 3.372 0 01-1.023-.407c-.138.159-.26.331-.363.515-.113.203-.17.432-.168.665a.911.911 0 00.427.772c.367.22.786.34 1.214.343l3.687.129a10.41 10.41 0 012.3.343 4.91 4.91 0 011.705.858c.451.35.81.807 1.044 1.33a4.18 4.18 0 01.363 1.758 4.49 4.49 0 01-.49 2.038 4.743 4.743 0 01-1.471 1.674 8.004 8.004 0 01-2.472 1.115 12.98 12.98 0 01-3.473.407 16.08 16.08 0 01-3.303-.3 7.326 7.326 0 01-2.237-.815 3.462 3.462 0 01-1.278-1.265 3.48 3.48 0 01-.253-2.638 4.15 4.15 0 01.427-.944 6.33 6.33 0 01.681-.858 7.05 7.05 0 01.937-.793 2.783 2.783 0 01-1.129-1.03 2.547 2.547 0 01-.404-1.416 3.345 3.345 0 01.468-1.76 5.423 5.423 0 011.193-1.44 4.525 4.525 0 01-.959-1.372 4.976 4.976 0 01-.362-1.994 5.324 5.324 0 01.468-2.296 5.147 5.147 0 011.3-1.715 5.883 5.883 0 011.981-1.073 8.661 8.661 0 012.557-.365c.456-.005.912.023 1.364.085.409.054.815.133 1.214.236h4.816c.192 0 .34.13.468.365.153.381.219.792.19 1.202zm-4.495 15.143a1.283 1.283 0 00-.619-1.137 3.291 3.291 0 00-1.682-.43l-3.047-.084a4.253 4.253 0 00-.703.6c-.162.17-.305.358-.427.559-.098.159-.17.333-.213.515-.035.169-.05.342-.043.515a1.342 1.342 0 00.852 1.244c.77.32 1.598.466 2.43.43a6.047 6.047 0 001.64-.194c.38-.104.74-.27 1.065-.494.25-.18.448-.425.575-.708a2.08 2.08 0 00.172-.816zM9.864 39.004a2.491 2.491 0 00-.682-1.845 2.67 2.67 0 00-1.918-.664 2.557 2.557 0 00-1.108.214 2.112 2.112 0 00-.788.558 2.392 2.392 0 00-.469.815 3.079 3.079 0 00-.149.986 2.323 2.323 0 00.682 1.76 2.642 2.642 0 001.896.643c.385.008.768-.058 1.13-.193.296-.122.564-.305.787-.536.208-.23.368-.5.469-.794a2.82 2.82 0 00.149-.943v-.001z" fill="#2B2E30" fill-opacity=".66"/><path d="M20.71 38.124c1.116 0 2.214.28 3.196.815a6.192 6.192 0 012.344 2.231c.549.92.836 1.975.831 3.049a5.794 5.794 0 01-.852 3.067 5.92 5.92 0 01-2.301 2.231 6.582 6.582 0 01-3.218.815 6.092 6.092 0 01-4.41-1.779 5.775 5.775 0 01-1.371-1.96 5.808 5.808 0 01-.462-2.351 5.735 5.735 0 01.517-2.502 5.699 5.699 0 011.55-2.024 6.094 6.094 0 014.175-1.592zm.042 2.746a3.177 3.177 0 00-2.344.944 3.656 3.656 0 00-.02 4.869 3.196 3.196 0 002.343.943 3.26 3.26 0 002.365-.943 3.353 3.353 0 00.937-2.446 3.303 3.303 0 00-.916-2.423 3.128 3.128 0 00-2.365-.944z" fill="#2B2E30" fill-opacity=".66"/><path opacity=".8" d="M29.935 29.373a1.365 1.365 0 01-.505-1.429 1.366 1.366 0 011.119-1.015 1.349 1.349 0 011.36.651 1.371 1.371 0 01-.077 1.514 1.358 1.358 0 01-1.897.279zM28.25 33.32a1.363 1.363 0 01-.504-1.429 1.365 1.365 0 011.119-1.015 1.348 1.348 0 011.36.651 1.371 1.371 0 01-.078 1.514 1.357 1.357 0 01-1.897.279zm.171 24.668a1.363 1.363 0 01-.504-1.429 1.352 1.352 0 012.479-.364 1.371 1.371 0 01-.078 1.514 1.358 1.358 0 01-1.897.279zm1.365 3.99a1.364 1.364 0 01-.505-1.429 1.366 1.366 0 011.119-1.016 1.35 1.35 0 011.36.652 1.37 1.37 0 01-.078 1.514 1.358 1.358 0 01-1.896.279zm4.367 6.822a1.363 1.363 0 01-.505-1.428 1.366 1.366 0 011.119-1.016 1.348 1.348 0 011.36.652 1.371 1.371 0 01-.078 1.514 1.358 1.358 0 01-1.896.278zm-2.406-3.304a1.365 1.365 0 01-.504-1.428 1.366 1.366 0 011.118-1.016 1.349 1.349 0 011.36.651 1.371 1.371 0 01-.077 1.515 1.358 1.358 0 01-1.897.278zm4.942 6.092a1.364 1.364 0 01-.505-1.429 1.366 1.366 0 011.119-1.016 1.348 1.348 0 011.36.652 1.371 1.371 0 01-.077 1.514 1.358 1.358 0 01-1.897.279zm2.812 2.552a1.363 1.363 0 01-.504-1.428 1.366 1.366 0 011.118-1.016 1.348 1.348 0 011.36.651 1.37 1.37 0 01-.077 1.515 1.353 1.353 0 01-1.897.279zm3.089 2.21a1.365 1.365 0 01-.504-1.428 1.366 1.366 0 011.119-1.016 1.35 1.35 0 011.36.651 1.371 1.371 0 01-.077 1.515 1.358 1.358 0 01-1.897.278zm3.24 1.909a1.364 1.364 0 01-.505-1.43 1.366 1.366 0 011.119-1.015 1.348 1.348 0 011.36.652 1.37 1.37 0 01-.077 1.514 1.358 1.358 0 01-1.897.279zm7.116 2.681a1.364 1.364 0 01-.505-1.428 1.365 1.365 0 011.119-1.015 1.348 1.348 0 011.36.651 1.371 1.371 0 01-.077 1.514 1.358 1.358 0 01-1.897.279zm-3.643-1.157a1.364 1.364 0 01-.505-1.429 1.366 1.366 0 011.119-1.015 1.348 1.348 0 011.36.651 1.372 1.372 0 01-.077 1.514 1.353 1.353 0 01-1.897.279zm11.122 2.316a1.364 1.364 0 01-.504-1.43 1.366 1.366 0 011.118-1.015 1.349 1.349 0 011.36.652 1.371 1.371 0 01-.077 1.514 1.357 1.357 0 01-1.897.279zm-3.75-.365a1.363 1.363 0 01-.505-1.43 1.366 1.366 0 011.119-1.015 1.348 1.348 0 011.36.652 1.371 1.371 0 01-.078 1.514 1.353 1.353 0 01-1.897.279zm11.315-.021a1.363 1.363 0 01-.505-1.428 1.367 1.367 0 011.118-1.016 1.348 1.348 0 011.36.652 1.37 1.37 0 01-.077 1.514 1.358 1.358 0 01-1.897.278zm-3.772.386a1.364 1.364 0 01-.504-1.43 1.366 1.366 0 011.119-1.015 1.349 1.349 0 011.36.652 1.371 1.371 0 01-.078 1.514 1.358 1.358 0 01-1.897.279zm11.037-2.36a1.364 1.364 0 01-.504-1.429 1.366 1.366 0 011.118-1.015 1.348 1.348 0 011.36.651 1.372 1.372 0 01-.077 1.514 1.358 1.358 0 01-1.897.279zm-3.58 1.181a1.363 1.363 0 01-.504-1.429 1.353 1.353 0 012.479-.364 1.37 1.37 0 01-.078 1.514 1.353 1.353 0 01-1.897.279zm10.314-4.634a1.363 1.363 0 01-.505-1.429 1.366 1.366 0 011.119-1.015 1.347 1.347 0 011.36.651 1.37 1.37 0 01-.077 1.514 1.344 1.344 0 01-.89.541 1.33 1.33 0 01-1.007-.262zm-3.281 1.93a1.363 1.363 0 01-.505-1.429 1.366 1.366 0 011.119-1.015 1.348 1.348 0 011.36.651 1.371 1.371 0 01-.077 1.514 1.357 1.357 0 01-1.897.279zm9.118-6.693a1.363 1.363 0 01-.504-1.429 1.366 1.366 0 011.118-1.015 1.348 1.348 0 011.36.651 1.371 1.371 0 01-.077 1.514 1.358 1.358 0 01-1.897.279zm-2.79 2.531a1.363 1.363 0 01-.504-1.428 1.365 1.365 0 011.118-1.016 1.348 1.348 0 011.36.652 1.37 1.37 0 01-.077 1.514 1.353 1.353 0 01-1.897.279zm7.564-8.409a1.363 1.363 0 01-.504-1.428 1.366 1.366 0 011.118-1.016 1.348 1.348 0 011.36.652 1.371 1.371 0 01-.077 1.514 1.353 1.353 0 01-1.897.279zm-2.259 3.068a1.363 1.363 0 01-.504-1.429 1.366 1.366 0 011.118-1.015 1.348 1.348 0 011.36.651 1.37 1.37 0 01-.077 1.514 1.353 1.353 0 01-1.897.279zm5.689-9.76a1.363 1.363 0 01-.505-1.428 1.366 1.366 0 011.119-1.016 1.349 1.349 0 011.36.651 1.371 1.371 0 01-.077 1.515 1.357 1.357 0 01-1.897.278zm-1.533 3.433a1.364 1.364 0 01-.505-1.429 1.366 1.366 0 011.119-1.015 1.348 1.348 0 011.36.651 1.371 1.371 0 01-.077 1.514 1.344 1.344 0 01-.89.541 1.333 1.333 0 01-1.007-.262zM97.99 51.66a1.363 1.363 0 01-.505-1.428 1.352 1.352 0 012.479-.364 1.374 1.374 0 01-.077 1.514 1.353 1.353 0 01-1.897.279zm-.788 3.69a1.363 1.363 0 01-.504-1.43 1.366 1.366 0 011.118-1.015 1.348 1.348 0 011.36.652 1.371 1.371 0 01-.077 1.514 1.344 1.344 0 01-.89.54 1.33 1.33 0 01-1.007-.261zm1.193-11.241a1.364 1.364 0 01-.504-1.429 1.365 1.365 0 011.119-1.015 1.348 1.348 0 011.36.651 1.372 1.372 0 01-.078 1.514 1.356 1.356 0 01-1.897.279zm0 3.776a1.364 1.364 0 01-.504-1.429 1.366 1.366 0 011.119-1.016 1.348 1.348 0 011.36.652 1.372 1.372 0 01-.078 1.514 1.356 1.356 0 01-1.897.279zm-1.129-11.261a1.364 1.364 0 01-.504-1.429 1.366 1.366 0 011.119-1.016 1.35 1.35 0 011.36.652 1.371 1.371 0 01-.078 1.514 1.358 1.358 0 01-1.897.279zm.746 3.689a1.364 1.364 0 01-.505-1.429 1.366 1.366 0 011.119-1.016 1.348 1.348 0 011.36.652 1.368 1.368 0 01-.969 2.047 1.353 1.353 0 01-1.005-.254zm-3.409-10.747a1.363 1.363 0 01-.505-1.429 1.366 1.366 0 011.119-1.015 1.348 1.348 0 011.36.651 1.37 1.37 0 01-.078 1.514 1.358 1.358 0 01-1.896.279zm1.512 3.454a1.364 1.364 0 01-.504-1.43 1.366 1.366 0 011.119-1.015 1.349 1.349 0 011.36.652 1.371 1.371 0 01-.078 1.514 1.358 1.358 0 01-1.897.279zm-5.625-9.824a1.363 1.363 0 01-.504-1.429 1.352 1.352 0 012.479-.364 1.372 1.372 0 01-.078 1.514 1.358 1.358 0 01-1.897.279zm2.26 3.067a1.364 1.364 0 01-.504-1.429 1.366 1.366 0 011.118-1.015 1.349 1.349 0 011.36.651 1.371 1.371 0 01-.077 1.514 1.358 1.358 0 01-1.897.279zm-7.545-8.43a1.364 1.364 0 01-.504-1.43 1.366 1.366 0 011.118-1.015 1.349 1.349 0 011.36.652 1.371 1.371 0 01-.077 1.514 1.358 1.358 0 01-1.897.279zm2.813 2.552a1.363 1.363 0 01-.505-1.428 1.37 1.37 0 01.407-.679 1.353 1.353 0 012.262 1.084 1.358 1.358 0 01-2.164 1.024zm-5.881-4.826a1.363 1.363 0 01-.504-1.43 1.353 1.353 0 012.668.405 1.358 1.358 0 01-1.158 1.278 1.353 1.353 0 01-1.006-.253zm-3.196-1.889a1.363 1.363 0 01-.504-1.428 1.366 1.366 0 011.118-1.015 1.348 1.348 0 011.36.651 1.37 1.37 0 01-.077 1.514 1.358 1.358 0 01-1.897.279zm-3.43-1.586a1.365 1.365 0 01-.504-1.429 1.367 1.367 0 011.118-1.015 1.349 1.349 0 011.361.651 1.371 1.371 0 01-.078 1.514 1.357 1.357 0 01-1.897.279zm-3.579-1.224a1.364 1.364 0 01-.504-1.428 1.366 1.366 0 011.118-1.015 1.348 1.348 0 011.36.651 1.371 1.371 0 01-.077 1.514 1.358 1.358 0 01-1.897.279zm-3.687-.771a1.364 1.364 0 01-.505-1.429 1.366 1.366 0 011.119-1.016 1.348 1.348 0 011.36.652 1.37 1.37 0 01-.077 1.514 1.357 1.357 0 01-1.897.279zm-3.73-.429a1.364 1.364 0 01-.504-1.43 1.365 1.365 0 011.118-1.015 1.348 1.348 0 011.36.652 1.371 1.371 0 01-.077 1.514 1.357 1.357 0 01-1.897.278zm-3.749-.043a1.364 1.364 0 01-.505-1.429 1.366 1.366 0 011.119-1.015 1.348 1.348 0 011.36.651 1.371 1.371 0 01-.077 1.514 1.358 1.358 0 01-1.897.279zm-3.773.322a1.364 1.364 0 01-.504-1.43 1.366 1.366 0 011.118-1.015 1.348 1.348 0 011.36.652 1.371 1.371 0 01-.077 1.514 1.358 1.358 0 01-1.897.279zm-3.707.728a1.364 1.364 0 01-.504-1.428 1.366 1.366 0 011.119-1.016 1.348 1.348 0 011.36.652 1.371 1.371 0 01-.078 1.514 1.358 1.358 0 01-1.897.278zm-3.621 1.159a1.363 1.363 0 01-.505-1.428 1.366 1.366 0 011.12-1.016 1.348 1.348 0 011.36.652 1.371 1.371 0 01-.078 1.514 1.358 1.358 0 01-1.897.278zm-3.431 1.501a1.363 1.363 0 01-.505-1.428 1.366 1.366 0 011.119-1.016 1.348 1.348 0 011.36.652 1.371 1.371 0 01-.077 1.514 1.353 1.353 0 01-1.897.279zm-7.117 4.591a1.364 1.364 0 01-.505-1.428 1.366 1.366 0 011.119-1.016 1.35 1.35 0 011.36.652 1.37 1.37 0 01-.077 1.514 1.358 1.358 0 01-1.897.278zm-2.749 2.532a1.363 1.363 0 01-.504-1.429 1.366 1.366 0 011.118-1.016 1.348 1.348 0 011.36.652 1.37 1.37 0 01-.077 1.514 1.358 1.358 0 01-1.897.279zm-2.535 2.852a1.364 1.364 0 01-.505-1.429 1.366 1.366 0 011.12-1.015 1.348 1.348 0 011.36.651 1.371 1.371 0 01-.078 1.514 1.358 1.358 0 01-1.897.279zm-2.108 2.918a1.363 1.363 0 01-.505-1.429 1.366 1.366 0 011.119-1.016 1.348 1.348 0 011.36.652 1.37 1.37 0 01-.077 1.514 1.358 1.358 0 01-1.897.279zm10.717-10.94a1.363 1.363 0 01-.505-1.429 1.366 1.366 0 011.119-1.015 1.348 1.348 0 011.36.651 1.37 1.37 0 01-.077 1.514 1.358 1.358 0 01-1.897.279z" fill="#2B2E30" fill-opacity=".66"/><path d="M29.488 38.576h2.216v9.223h3.218v2.04H29.51V38.577h-.022zm12.359-.279a5.856 5.856 0 014.24 1.738 5.72 5.72 0 011.767 4.226 5.56 5.56 0 01-.432 2.269 5.528 5.528 0 01-1.316 1.892 5.884 5.884 0 01-4.24 1.716 5.795 5.795 0 01-4.347-1.759 5.857 5.857 0 01-.916-7.122 5.933 5.933 0 012.216-2.145 5.776 5.776 0 013.028-.815zm-.021 2.08a3.693 3.693 0 00-2.721 1.11 3.743 3.743 0 00-1.072 2.752 3.604 3.604 0 001.385 2.964c.703.56 1.575.862 2.472.858a3.695 3.695 0 002.684-1.094 3.624 3.624 0 001.108-2.725 3.713 3.713 0 00-1.108-2.724 3.848 3.848 0 00-2.748-1.137v-.003zm18.75.171l-1.535 1.44a4.863 4.863 0 00-1.6-1.175 4.832 4.832 0 00-1.933-.435 3.834 3.834 0 00-2.791 1.094 3.599 3.599 0 00-1.13 2.725c-.013.7.164 1.39.512 1.995a3.678 3.678 0 001.43 1.373 4.369 4.369 0 002.046.494c.6.013 1.196-.104 1.747-.343a6.634 6.634 0 001.747-1.265l1.492 1.524a8.22 8.22 0 01-2.429 1.694 6.69 6.69 0 01-2.6.472 6.078 6.078 0 01-4.431-1.674 6.132 6.132 0 01-.937-7.272 5.896 5.896 0 012.237-2.102 6.439 6.439 0 013.153-.793c.954 0 1.897.197 2.77.58a6.827 6.827 0 012.252 1.668zm5.497-1.972h2.234l4.454 11.264h-2.3l-.917-2.317h-4.728l-.937 2.317h-2.302l4.496-11.264zm1.129 2.982l-1.556 3.86h3.113l-1.557-3.86zm7.245-2.982h2.216v9.223h3.218v2.04H74.47l-.022-11.263z" fill="#2B2E30" fill-opacity=".66"/></svg>