<svg width="175" height="58" fill="none" xmlns="http://www.w3.org/2000/svg"><path d="M63.004 47.422l-2.694-4.794h1.838l1.904 3.525 1.789-3.525h1.684l-2.505 4.794h-2.016zm10.671-.835h-4.281l-.475.89h-1.674l2.661-4.872h3.23l2.812 4.867h-1.774l-.499-.885zM70.92 43.73l-.94 1.756h3.087l-.98-1.758-1.167.002zm7.207 3.713a3.324 3.324 0 01-.902-.303 1.556 1.556 0 01-.5-.427 1.372 1.372 0 01-.24-.454 1.681 1.681 0 01-.053-.43v-.073h1.713c.037.514.407.77 1.41.77h.38c.23.004.459-.01.685-.042.163-.014.322-.055.472-.121a.494.494 0 00.2-.16.362.362 0 00.05-.192.35.35 0 00-.085-.248.826.826 0 00-.395-.16 4.966 4.966 0 00-.896-.08l-.517-.012-.386-.009c-1.706-.043-2.56-.518-2.56-1.422v-.059c0-.147.02-.293.064-.434.054-.15.14-.287.255-.398a1.54 1.54 0 01.5-.336 3.51 3.51 0 01.83-.224 7.313 7.313 0 011.212-.088h.487c.425-.004.85.026 1.27.09.3.043.595.122.877.235.2.083.381.203.536.353.123.117.22.258.286.415.052.14.078.29.077.44v.067h-1.704a.61.61 0 00-.039-.135.69.69 0 00-.356-.296 2.18 2.18 0 00-.44-.101 3.421 3.421 0 00-.602-.047h-.244a3.991 3.991 0 00-.855.069.833.833 0 00-.385.143.298.298 0 00-.067.203.284.284 0 00.075.202.775.775 0 00.352.143c.26.051.523.075.787.072l.386.006.495.007a5.029 5.029 0 012.119.37 1.14 1.14 0 01.652 1.074v.091c.002.163-.019.325-.063.48a1.18 1.18 0 01-.26.434c-.148.16-.327.286-.526.372-.287.12-.588.202-.895.245a8.1 8.1 0 01-1.329.094h-.487a6.675 6.675 0 01-1.384-.124zm7.957-1.878l-2.77-2.938h2.012l1.603 1.765 1.644-1.765h1.83l-2.693 2.938v1.855h-1.622l-.004-1.855zm6.816-2.938v3.653h3.645v1.207h-5.288v-4.853l1.642-.007zM60.737 55.805V50.95h1.643v2.023l2.686-2.023h2.088l-3.017 2.219 3.159 2.637h-2.143l-2.771-2.29v2.29l-1.645-.002zm7.452-4.852h1.639v1.76h3.517V50.95h1.638v4.845h-1.638v-1.908h-3.517v1.908h-1.64v-4.84zm8.095-.003h2.334l1.811 3.02 1.82-3.02h2.249v4.853h-1.623v-3.361l-2.065 3.361h-.882l-2.066-3.361v3.361h-1.579l.001-4.853zm15.058-.019v1.106h-3.919v.72h3.824v1.112h-3.824v.798h3.986v1.132H85.8v-4.867h5.543zm2.92.019v3.648h3.645v1.207H92.62v-4.853l1.642-.002zm6.461 0l3.35 3.053V50.95h1.621v4.853h-1.622l-3.561-3.217v3.217h-1.622V50.95h1.834zm8.587 2.938l-2.771-2.938h2.012l1.603 1.766 1.637-1.766h1.83l-2.693 2.938v1.855h-1.622l.004-1.855zm7.078-1.79h-2.252V50.95h6.177v1.148h-2.269v3.707h-1.657l.001-3.707zm6.409 3.668a3.326 3.326 0 01-.902-.304 1.548 1.548 0 01-.501-.428 1.372 1.372 0 01-.24-.453 1.69 1.69 0 01-.053-.431v-.072h1.714c.037.514.407.77 1.408.77h.382c.229.004.458-.01.685-.042a1.5 1.5 0 00.472-.121.497.497 0 00.2-.16.36.36 0 00.049-.192.35.35 0 00-.085-.248.825.825 0 00-.395-.16 4.968 4.968 0 00-.896-.08l-.517-.012-.385-.008c-1.707-.043-2.56-.517-2.56-1.422v-.06c-.001-.146.02-.293.063-.433.054-.15.14-.287.254-.398.144-.144.314-.259.501-.337.266-.109.544-.184.829-.225a7.317 7.317 0 011.212-.089h.486c.425-.004.85.027 1.27.092.301.042.595.12.877.234.199.083.381.203.537.353.122.116.22.258.285.415.052.14.079.29.077.44v.065h-1.703a.621.621 0 00-.039-.133.698.698 0 00-.356-.296 2.18 2.18 0 00-.441-.102 3.451 3.451 0 00-.601-.045h-.245a4.003 4.003 0 00-.854.069.83.83 0 00-.385.143.292.292 0 00-.067.202.284.284 0 00.074.203.776.776 0 00.353.143c.259.05.522.075.786.072l.386.006.495.007a5.028 5.028 0 012.119.37c.202.093.372.245.488.436.116.191.173.413.165.637v.091c.002.162-.019.324-.063.48a1.19 1.19 0 01-.261.434c-.148.16-.326.286-.525.372-.287.12-.588.202-.896.245a8.19 8.19 0 01-1.329.094h-.505a6.656 6.656 0 01-1.363-.122zm6.045.039V50.95h1.642v2.023l2.686-2.023h2.088l-3.018 2.219 3.159 2.637h-2.143l-2.771-2.29v2.29l-1.643-.002zm9.766-1.917l-2.771-2.938h2.012l1.604 1.766 1.636-1.766h1.831l-2.694 2.938v1.855h-1.622l.004-1.855zM23.705 39.88V17.6h7.277v9.962l12.666-9.984h9.365L38.886 28.614l14.102 11.262h-9.45l-12.556-9.909v9.91l-7.276.003zm58.393-20.794v4.387H67.037v3.033h14.696v4.413H67.037v7.476h-6.506V19.082l21.567.004zM98 38.458a21.932 21.932 0 01-4.21-.372 13.757 13.757 0 01-3.206-.99 9.936 9.936 0 01-2.305-1.489 8.63 8.63 0 01-1.58-1.772 9.527 9.527 0 01-.958-1.927 9.66 9.66 0 01-.5-1.874 11.58 11.58 0 01-.125-1.696v-9.271h6.493v8.912a6.14 6.14 0 00.29 1.913c.221.638.555 1.23.986 1.748A4.604 4.604 0 0095.008 33c1.107.36 2.265.53 3.427.506a10.06 10.06 0 003.372-.505 4.704 4.704 0 002.104-1.361 5.452 5.452 0 001.002-1.748 6.057 6.057 0 00.292-1.913v-8.912h6.465v9.271a10.553 10.553 0 01-.291 2.44 9.401 9.401 0 01-1.151 2.658 9.575 9.575 0 01-2.192 2.505 10.909 10.909 0 01-3.677 1.798 18.332 18.332 0 01-5.369.719H98zm24.301-19.391l13.352 12.173V19.067h6.465v19.352h-6.465l-14.195-12.827v12.827h-6.465V19.067h7.308zm37.519-.072a35.04 35.04 0 015.298.365c1.354.183 2.68.538 3.945 1.057.958.406 1.866.923 2.706 1.539a6.128 6.128 0 011.718 1.921c.373.66.662 1.366.859 2.1.183.72.273 1.46.268 2.204v.782a9.63 9.63 0 01-.338 2.595 7.537 7.537 0 01-1.339 2.517 8.66 8.66 0 01-2.578 2.216 15.285 15.285 0 01-4.283 1.517 28.946 28.946 0 01-6.226.6h-13.919V18.994h13.889zm-7.325 14.734h6.813c5.617 0 8.425-1.67 8.425-5.008v-.15c0-3.32-2.808-4.98-8.425-4.98h-6.813v10.138z" fill="#2B2E30" fill-opacity=".66"/><path d="M28.286 57.13a28.105 28.105 0 01-15.715-4.81A28.488 28.488 0 012.153 39.51a28.784 28.784 0 01-1.61-16.49A28.624 28.624 0 018.286 8.404 28.208 28.208 0 0122.767.594 28.05 28.05 0 0139.11 2.218 28.343 28.343 0 0151.804 12.73a28.728 28.728 0 014.767 15.858 28.707 28.707 0 01-8.294 20.173 28.189 28.189 0 01-19.991 8.37zm0-53.121A24.203 24.203 0 0014.753 8.15 24.534 24.534 0 005.78 19.183a24.787 24.787 0 00-1.386 14.201 24.65 24.65 0 006.667 12.585 24.293 24.293 0 0012.472 6.727 24.15 24.15 0 0014.073-1.398 24.408 24.408 0 0010.932-9.053 24.739 24.739 0 004.105-13.656 24.721 24.721 0 00-7.142-17.373 24.275 24.275 0 00-17.216-7.208z" fill="#2B2E30" fill-opacity=".66"/></svg>