<svg width="229" height="40" fill="none" xmlns="http://www.w3.org/2000/svg"><g clip-path="url(#clip0)"><path d="M59.07 16.104h-7.88V6.54h1.75v8h4.6v-8h1.742v8h1.534v3.14H59.07v-1.577zm3.76-9.564h6.55v1.57h-4.8v2.4h4.149v1.476H64.58v2.551h4.867v1.57H62.83V6.542zm8.355 0h1.77v3.966h4.824V6.54h1.758v9.563h-1.758v-4.036h-4.824v4.036h-1.75l-.02-9.563zm12.76 1.559h-2.846v-1.57h7.437v1.57h-2.849v8.005h-1.742V8.099zM94.149 6.54a3.531 3.531 0 011.71.413c.493.266.9.664 1.178 1.15a3.27 3.27 0 01.428 1.657c.012.6-.135 1.193-.424 1.72-.272.496-.68.905-1.177 1.177a3.508 3.508 0 01-1.7.392h-2.303v3.055h-1.75V6.54h4.038zm.765 4.711c.249-.149.452-.363.589-.62.144-.27.218-.573.216-.88 0-.286-.076-.568-.22-.816a1.736 1.736 0 00-.593-.612 1.57 1.57 0 00-.828-.232h-2.206v3.4h2.222a1.54 1.54 0 00.84-.232l-.02-.008zm11.738-4.711a3.536 3.536 0 011.712.413c.491.267.898.665 1.177 1.15a3.27 3.27 0 01.424 1.657c.013.6-.132 1.193-.42 1.72a2.97 2.97 0 01-1.178 1.177 3.504 3.504 0 01-1.699.392h-2.304v3.055h-1.738V6.54h4.026zm.766 4.711c.248-.15.451-.364.588-.62a1.83 1.83 0 00.212-.88 1.614 1.614 0 00-.216-.816 1.766 1.766 0 00-.592-.612 1.57 1.57 0 00-.828-.232h-2.206v3.4h2.221c.29.002.575-.079.821-.232v-.008zm5.961 4.389a5.048 5.048 0 01-1.88-1.821 4.907 4.907 0 010-5.021 5.065 5.065 0 011.88-1.818 5.339 5.339 0 015.169 0 5.036 5.036 0 011.88 1.818 4.87 4.87 0 010 5.02 5.04 5.04 0 01-1.88 1.822 5.327 5.327 0 01-5.165 0h-.004zm4.317-1.385a3.426 3.426 0 001.241-4.676 3.296 3.296 0 00-1.241-1.217 3.53 3.53 0 00-3.434 0c-.513.288-.94.708-1.236 1.217a3.416 3.416 0 00-.451 1.735 3.323 3.323 0 003.375 3.368 3.44 3.44 0 001.719-.443l.027.016zm9.902.282a1.87 1.87 0 00.785-.49 1.12 1.12 0 00.302-.786 1.217 1.217 0 00-.6-1.1 3.304 3.304 0 00-1.747-.391h-1.361v-1.3h1.475c.493.023.982-.09 1.413-.33a1.08 1.08 0 00.479-.97 1.027 1.027 0 00-.546-.941 2.939 2.939 0 00-1.46-.31c-1.47 0-2.261.622-2.374 1.868h-1.746c.03-.72.276-1.415.706-1.994a3.51 3.51 0 011.519-1.127 5.359 5.359 0 011.962-.353 5.787 5.787 0 011.963.31c.51.171.961.483 1.303.899.311.41.472.914.459 1.429.02.5-.148.99-.471 1.374a2.56 2.56 0 01-1.178.785c.353.084.687.233.985.44a2.4 2.4 0 01.734.785c.188.33.284.704.279 1.083a2.355 2.355 0 01-.561 1.57c-.398.45-.907.788-1.476.978a5.626 5.626 0 01-1.935.33 6.015 6.015 0 01-2.076-.35 3.401 3.401 0 01-2.284-3.116h1.743a1.77 1.77 0 00.757 1.452 3.53 3.53 0 001.845.393c.374.015.747-.031 1.106-.138zm8.839-7.997a3.487 3.487 0 011.526.314c.422.194.777.508 1.021.903.248.413.374.889.361 1.37a2.203 2.203 0 01-.601 1.468 1.857 1.857 0 01-.608.433 2.577 2.577 0 011.523 1.299c.156.305.236.643.235.985a2.557 2.557 0 01-1.569 2.47 3.636 3.636 0 01-1.5.31h-4.556V6.54h4.168zm.541 3.828c.187-.107.34-.263.444-.451a1.329 1.329 0 000-1.265 1.18 1.18 0 00-1.064-.608h-2.327v2.489h2.319c.221.003.438-.054.628-.165zm.432 4.044c.212-.115.389-.286.51-.495a1.43 1.43 0 00.181-.726 1.275 1.275 0 00-.185-.676 1.408 1.408 0 00-1.22-.667h-2.665v2.748h2.653c.254 0 .503-.063.726-.184zm12.677 1.692h-1.751V9.43l-5.212 6.674h-1.487V6.54h1.743v6.693l5.208-6.693h1.507l-.008 9.563zm4.431-8.005h-2.846v-1.57h7.438v1.57h-2.85v8.005h-1.742V8.099zm7.92-1.559v3.773h.989l2.653-3.776h2.107l-3.359 4.612 3.457 4.95h-2.158l-2.7-3.901h-.989V16.1h-1.751V6.54h1.751zm8.563 8.221c.285.01.567-.063.813-.208.251-.173.448-.414.569-.695l.298-.64-3.297-6.674h1.923l2.265 4.97 2.186-4.97h1.927l-3.662 7.754a3.922 3.922 0 01-1.209 1.57c-.44.298-.96.455-1.491.452h-.667v-1.57l.345.011zM52.94 23.822v3.765h.992l2.65-3.777h2.111l-3.363 4.613 3.461 4.95h-2.158l-2.7-3.902h-.993v3.902h-1.75v-9.551h1.75zm11.26 0a3.46 3.46 0 011.71.416c.493.265.901.664 1.178 1.15.29.502.437 1.074.428 1.653.011.6-.135 1.193-.424 1.72-.27.498-.68.907-1.178 1.177a3.456 3.456 0 01-1.699.413h-2.304v3.05h-1.75v-9.58h4.038zm.784 4.71a1.63 1.63 0 00.585-.623c.145-.27.22-.573.216-.88a1.6 1.6 0 00-.22-.812 1.672 1.672 0 00-.593-.613 1.526 1.526 0 00-.828-.231H61.94v3.392h2.221a1.57 1.57 0 00.809-.22l.015-.012zm4.046-4.71h6.555v1.57h-4.816v2.399h4.149v1.476h-4.149v2.556h4.867v1.57h-6.605v-9.571zm15.448 9.563l-.761-1.849h-4.4l-.761 1.85h-1.849l3.98-9.572h1.66l3.98 9.571h-1.849zm-4.564-3.31h3.206l-1.53-3.772-.044-.232h-.02l-.058.232-1.554 3.773zm8.685-4.691h-2.845v-1.57h7.437v1.57h-2.85v8.001H88.6v-8zm14.635 8.001h-1.75v-6.674l-5.212 6.674h-1.496v-9.563h1.727v6.674l5.212-6.674h1.503l.016 9.563zm6.59-9.563a3.477 3.477 0 011.526.318c.422.193.778.506 1.025.899.247.413.372.888.361 1.37a2.196 2.196 0 01-.601 1.468c-.17.185-.377.332-.608.432.324.105.624.273.883.495.265.222.481.496.636.804.156.307.237.646.235.99a2.64 2.64 0 01-.427 1.527 2.6 2.6 0 01-1.127.938 3.652 3.652 0 01-1.503.31h-4.568v-9.551h4.168zm.541 3.827a1.213 1.213 0 00.605-1.083 1.209 1.209 0 00-1.225-1.24h-2.327v2.488h2.323a1.2 1.2 0 00.624-.165zm.432 4.044a1.26 1.26 0 00.51-.495c.125-.22.189-.47.185-.722a1.268 1.268 0 00-.189-.675 1.32 1.32 0 00-.506-.49 1.452 1.452 0 00-.714-.181h-2.665v2.748h2.653c.254.002.504-.061.726-.185zm4.219-7.871h1.75v3.965h4.824v-3.965h1.758v9.563h-1.758v-4.036h-4.824v4.036h-1.75v-9.563zm12.649 9.1a5.065 5.065 0 01-1.88-1.818 4.915 4.915 0 010-5.025 5.03 5.03 0 011.88-1.814 5.336 5.336 0 015.169 0 5 5 0 011.88 1.814 4.886 4.886 0 010 5.025 5.1 5.1 0 01-1.88 1.818 5.327 5.327 0 01-5.165 0h-.004zm4.317-1.386a3.318 3.318 0 001.696-2.94 3.329 3.329 0 00-1.696-2.952 3.53 3.53 0 00-3.434 0c-.515.287-.942.71-1.236 1.22a3.53 3.53 0 000 3.455c.297.51.725.93 1.24 1.217.52.296 1.109.449 1.707.444a3.444 3.444 0 001.708-.444h.015zm4.16-8.974a.678.678 0 01-.23-.507.667.667 0 01.23-.506.884.884 0 01.593-.204.87.87 0 01.593.204.645.645 0 01.227.506.64.64 0 01-.227.506.854.854 0 01-.593.205.86.86 0 01-.593-.204zm1.033 1.26h1.715v9.563h-1.751l.036-9.563zm1.518-1.26a.64.64 0 01-.227-.507.655.655 0 01.231-.506.85.85 0 01.585-.204.88.88 0 01.597.204.657.657 0 010 1.013.86.86 0 01-.597.204.829.829 0 01-.608-.204h.019zm6.28 1.26h6.55v1.57h-4.784v2.399h4.148v1.476h-4.148v2.556h4.863v1.57h-6.629v-9.571zm10.106 0v3.765h.989l2.653-3.777h2.107l-3.359 4.613 3.458 4.95h-2.159l-2.7-3.902h-.989v3.902h-1.751v-9.551h1.751zm8.603 9.1a5.098 5.098 0 01-1.876-1.818 4.916 4.916 0 010-5.025 5.037 5.037 0 011.876-1.814 5.34 5.34 0 015.172 0 5.015 5.015 0 011.88 1.814 4.906 4.906 0 010 5.025 5.1 5.1 0 01-1.88 1.818 5.335 5.335 0 01-5.168 0h-.004zm4.317-1.386a3.293 3.293 0 001.24-1.217 3.498 3.498 0 000-3.455 3.305 3.305 0 00-1.24-1.22 3.462 3.462 0 00-1.719-.444 3.411 3.411 0 00-1.715.443c-.515.288-.942.71-1.236 1.221a3.37 3.37 0 00-.452 1.732 3.32 3.32 0 001.692 2.94 3.417 3.417 0 001.711.444 3.46 3.46 0 001.707-.444h.012zm5.177-7.714h1.75v3.965h4.823v-3.965h1.755v9.563h-1.755v-4.036h-4.823v4.036h-1.75v-9.563zm12.645 9.1a5.097 5.097 0 01-1.876-1.802 4.887 4.887 0 010-5.025 5.037 5.037 0 011.876-1.814 5.34 5.34 0 015.172 0 5.053 5.053 0 011.88 1.814 4.907 4.907 0 010 5.025 5.1 5.1 0 01-1.88 1.817 5.335 5.335 0 01-5.168 0l-.004-.015zm4.317-1.386a3.28 3.28 0 001.244-1.217 3.508 3.508 0 000-3.455 3.293 3.293 0 00-1.244-1.22 3.53 3.53 0 00-3.434 0c-.513.289-.939.71-1.233 1.22a3.371 3.371 0 00-.455 1.732 3.336 3.336 0 001.696 2.94 3.529 3.529 0 003.426 0zm5.173-7.714h1.526l3.297 4.46 3.32-4.46h1.523v9.563h-1.75v-6.756l-2.861 3.925h-.471l-2.834-3.925V33.4h-1.75v-9.58zm12.084 0h1.746v9.563h-1.75l.004-9.563zm5.914 0v3.765h.993l2.649-3.777h2.112l-3.364 4.613 3.462 4.95h-2.171l-2.7-3.902h-.993v3.902h-1.75v-9.551h1.762zM229 33.385h-1.754v-6.674l-5.208 6.674h-1.496v-9.563h1.743v6.674l5.208-6.674H229v9.563z" fill="#fff"/><path d="M0 19.998A20.024 20.024 0 015.862 5.864 20.013 20.013 0 0119.992 0L37.12.027a6.619 6.619 0 016.782 6.621 6.624 6.624 0 01-6.782 6.621l-17.127-.027a6.761 6.761 0 00-6.754 6.756 6.624 6.624 0 01-6.619 6.784A6.619 6.619 0 010 19.998z" fill="#FF8110"/><path d="M43.74 33.377a6.624 6.624 0 00-6.62-6.623H19.991a6.762 6.762 0 01-6.754-6.756 6.623 6.623 0 01-6.45 6.57 6.62 6.62 0 01-6.78-6.228 20.024 20.024 0 005.979 13.91 20.013 20.013 0 0014.005 5.746H37.12a6.616 6.616 0 006.621-6.619z" fill="#FF8110"/></g><defs><clipPath id="clip0"><path fill="#fff" d="M0 0h229v40H0z"/></clipPath></defs></svg>