<svg width="44" height="40" fill="none" xmlns="http://www.w3.org/2000/svg"><path d="M.002 19.998A20.024 20.024 0 015.864 5.864 20.013 20.013 0 0119.994 0l17.127.027a6.62 6.62 0 016.782 6.621 6.626 6.626 0 01-4.199 6.164c-.822.323-1.7.479-2.583.457l-17.127-.027a6.762 6.762 0 00-6.754 6.756 6.626 6.626 0 01-4.048 6.264 6.619 6.619 0 01-9.19-6.264z" fill="#FF8110"/><path d="M43.742 33.377a6.624 6.624 0 00-6.62-6.623H19.993a6.761 6.761 0 01-6.754-6.756 6.624 6.624 0 01-6.45 6.57A6.62 6.62 0 01.01 20.34a20.024 20.024 0 005.979 13.91 20.013 20.013 0 0014.005 5.746h17.127a6.616 6.616 0 006.621-6.619z" fill="#FF8110"/></svg>